<svg width="23" height="23" fill="none" xmlns="http://www.w3.org/2000/svg"><path d="M11.388 0c1.916 0 3.481.022 4.694.067 1.033.045 1.954.225 2.763.54a5.73 5.73 0 012.021 1.302 5.73 5.73 0 011.303 2.022c.314.808.494 1.73.539 2.762.045 1.213.067 2.778.067 4.695 0 1.916-.022 3.481-.067 4.694-.045 1.033-.225 1.954-.54 2.763a5.73 5.73 0 01-1.302 2.021 5.73 5.73 0 01-2.021 1.303c-.809.314-1.73.494-2.763.539-1.213.045-2.778.067-4.694.067-1.917 0-3.482-.022-4.695-.067-1.033-.045-1.954-.225-2.762-.54a5.73 5.73 0 01-2.022-1.302 5.73 5.73 0 01-1.303-2.021c-.314-.809-.494-1.73-.539-2.763A131.862 131.862 0 010 11.388C0 9.47.022 7.906.067 6.693.112 5.66.292 4.74.607 3.931a5.722 5.722 0 011.302-2.022A5.731 5.731 0 013.931.606C4.739.292 5.66.112 6.693.067 7.906.022 9.471 0 11.388 0zm0 1.482c-1.992 0-3.617.023-4.874.068a7.211 7.211 0 00-2.246.427c-1.079.449-1.842 1.212-2.291 2.29a7.211 7.211 0 00-.427 2.247 142.033 142.033 0 00-.068 4.874c0 1.991.023 3.616.068 4.874.03.808.172 1.557.427 2.246.449 1.078 1.212 1.842 2.29 2.29a7.211 7.211 0 002.247.428c1.257.044 2.882.067 4.874.067 1.991 0 3.616-.023 4.874-.067a7.211 7.211 0 002.246-.427c1.078-.45 1.842-1.213 2.29-2.291a7.211 7.211 0 00.428-2.246c.044-1.258.067-2.883.067-4.874 0-1.992-.023-3.617-.067-4.874a7.211 7.211 0 00-.427-2.246c-.45-1.079-1.213-1.842-2.291-2.291a7.211 7.211 0 00-2.246-.427 142.032 142.032 0 00-4.874-.068zm0 14.465c1.258 0 2.332-.445 3.223-1.336.89-.891 1.336-1.966 1.336-3.223 0-1.258-.445-2.332-1.336-3.223s-1.966-1.337-3.223-1.337c-1.258 0-2.332.446-3.223 1.337-.891.89-1.337 1.965-1.337 3.223 0 1.258.446 2.332 1.337 3.223.89.89 1.965 1.336 3.223 1.336zm0-10.4c1.617 0 2.995.57 4.133 1.708 1.137 1.138 1.706 2.516 1.706 4.133s-.569 2.995-1.707 4.133c-1.137 1.137-2.515 1.706-4.132 1.706-1.617 0-2.995-.569-4.133-1.707-1.138-1.137-1.707-2.515-1.707-4.132 0-1.617.569-2.995 1.707-4.133 1.138-1.138 2.516-1.707 4.133-1.707zm7.457-.224c0 .375-.135.693-.405.955s-.599.393-.988.393a1.3 1.3 0 01-.954-.393 1.3 1.3 0 01-.393-.955c0-.39.13-.719.393-.988.262-.27.58-.404.954-.404s.7.138.977.415c.277.277.416.603.416.977z"/></svg>