<svg width="60" height="60" fill="none" xmlns="http://www.w3.org/2000/svg"><path fill="#68B738" d="M0 0h60v60H0z"/><path fill-rule="evenodd" clip-rule="evenodd" d="M19.5 15a1 1 0 011 1v5.5c0 .557.192 1.315.7 1.917.36.424.918.82 1.8.993V16a1 1 0 112 0v8.41c.882-.173 1.44-.57 1.8-.993.508-.602.7-1.36.7-1.917V16a1 1 0 112 0v5.5c0 .943-.308 2.185-1.174 3.208-.74.875-1.834 1.526-3.326 1.727V44a1 1 0 11-2 0V26.435c-1.493-.2-2.586-.852-3.326-1.727A5.068 5.068 0 0118.5 21.5V16a1 1 0 011-1zm18.207.293A1 1 0 0036 16v28a1 1 0 102 0v-9h3.5a1 1 0 001-1c0-5.492-.763-9.72-1.734-12.79-.962-3.04-2.15-5.009-3.059-5.917zM40.491 33H38V19.519c.288.653.58 1.416.86 2.295.845 2.674 1.545 6.37 1.631 11.186z" fill="#fff"/></svg>