<svg width="20" height="21" fill="none" xmlns="http://www.w3.org/2000/svg"><path clip-rule="evenodd" d="M8.374 14.2v6.2a.52.52 0 01-.173.394.47.47 0 01-.402.106H3.395a2.666 2.666 0 01-1.11-.235 2.77 2.77 0 01-.927-.68 2.916 2.916 0 01-.589-1.012A3.01 3.01 0 01.62 17.8V3.9a3.11 3.11 0 01.254-1.14 3 3 0 01.654-.953c.276-.269.6-.479.953-.617.353-.139.73-.203 1.107-.19H7.8c.155.023.3.092.419.198a.864.864 0 01.251.402v6.3a.663.663 0 01-.18.411.611.611 0 01-.394.189H3.682a1.25 1.25 0 01.342-.843c.215-.224.504-.352.807-.357H7.13v-5H3.395a1.664 1.664 0 00-1.165.553c-.304.337-.47.784-.462 1.247v14a1.821 1.821 0 00.569 1.247c.169.159.366.28.581.358.215.078.442.11.669.095h3.542v-5H4.735a1.144 1.144 0 01-.806-.357 1.247 1.247 0 01-.342-.843h4.212a.611.611 0 01.394.189c.105.11.17.256.18.411zm1.244-3.8h8.138l-2.01-2 .861-.9 2.968 3.1a.772.772 0 010 .9l-2.968 3.1-.861-.9 2.01-2.1H9.618v-1.2z"/></svg>