<svg xmlns="http://www.w3.org/2000/svg">
<defs>
<clipPath id="clip0"> <rect width="30" height="32" fill="white" transform="translate(15 14)"/> </clipPath>
</defs>
<symbol id="arrow" viewBox="0 0 24 12"> <line y1="6" x2="18" y2="6" stroke="black" stroke-width="2"/> <path d="M24 6L17.25 11.1962L17.25 0.803848L24 6Z" fill="black"/> </symbol>
<symbol id="clock" viewBox="0 0 60 60"> <rect width="60" height="60" fill="#68B738"/> <path fill-rule="evenodd" clip-rule="evenodd" d="M42 30.6145C42 23.9012 36.9148 18.4128 30.5 18.0222V16.5H36.75C37.1642 16.5 37.5 16.1642 37.5 15.75C37.5 15.3358 37.1642 15 36.75 15H22.75C22.3358 15 22 15.3358 22 15.75C22 16.1642 22.3358 16.5 22.75 16.5H29V18.0244C22.602 18.4331 17.5356 23.9136 17.5356 30.6145C17.5356 34.4288 19.1773 37.8477 21.7717 40.1608C22.2244 40.5644 22.2849 41.2708 21.8617 41.7054L20.4276 43.1781C20.1698 43.4427 20.1698 43.8645 20.4276 44.1292C20.6951 44.4039 21.1366 44.4039 21.4042 44.1292L23.2838 42.199C23.6025 41.8718 24.1004 41.8061 24.5102 42.0076C26.103 42.7907 27.8858 43.229 29.7678 43.229C31.609 43.229 33.3553 42.8095 34.9215 42.0581C35.3298 41.8622 35.8226 41.9298 36.1385 42.2542L37.9644 44.1292C38.2319 44.4039 38.6734 44.4039 38.941 44.1292C39.1987 43.8645 39.1987 43.4427 38.941 43.1781L37.5843 41.7849C37.1584 41.3475 37.2228 40.6356 37.682 40.2333C40.3238 37.9195 42 34.4688 42 30.6145ZM40.6409 30.6145C40.6409 36.8072 35.7728 41.8274 29.7678 41.8274C23.7628 41.8274 18.8948 36.8072 18.8948 30.6145C18.8948 24.4218 23.7628 19.4016 29.7678 19.4016C35.7728 19.4016 40.6409 24.4218 40.6409 30.6145ZM29.0083 31.1663C29.0083 31.5857 29.3483 31.9257 29.7677 31.9257C30.2113 31.9257 30.5708 31.5661 30.5708 31.1226V22.9409C30.5708 22.5094 30.221 22.1596 29.7895 22.1596C29.3581 22.1596 29.0083 22.5094 29.0083 22.9409V31.1663ZM24.3311 25.415C24.9316 25.415 25.4184 24.9292 25.4184 24.3299C25.4184 23.7306 24.9316 23.2448 24.3311 23.2448C23.7306 23.2448 23.2438 23.7306 23.2438 24.3299C23.2438 24.9292 23.7306 25.415 24.3311 25.415ZM35.2042 25.415C35.8047 25.415 36.2915 24.9292 36.2915 24.3299C36.2915 23.7306 35.8047 23.2448 35.2042 23.2448C34.6037 23.2448 34.1169 23.7306 34.1169 24.3299C34.1169 24.9292 34.6037 25.415 35.2042 25.415ZM25.4184 37.3513C25.4184 37.9506 24.9316 38.4364 24.3311 38.4364C23.7306 38.4364 23.2438 37.9506 23.2438 37.3513C23.2438 36.752 23.7306 36.2661 24.3311 36.2661C24.9316 36.2661 25.4184 36.752 25.4184 37.3513ZM29.7677 40.6066C30.3682 40.6066 30.855 40.1208 30.855 39.5215C30.855 38.9222 30.3682 38.4364 29.7677 38.4364C29.1672 38.4364 28.6804 38.9222 28.6804 39.5215C28.6804 40.1208 29.1672 40.6066 29.7677 40.6066ZM22.1565 30.7749C22.1565 31.3742 21.6697 31.86 21.0692 31.86C20.4687 31.86 19.9819 31.3742 19.9819 30.7749C19.9819 30.1756 20.4687 29.6897 21.0692 29.6897C21.6697 29.6897 22.1565 30.1756 22.1565 30.7749ZM38.4661 31.86C39.0666 31.86 39.5534 31.3742 39.5534 30.7749C39.5534 30.1756 39.0666 29.6897 38.4661 29.6897C37.8656 29.6897 37.3788 30.1756 37.3788 30.7749C37.3788 31.3742 37.8656 31.86 38.4661 31.86ZM36.2915 37.3513C36.2915 37.9506 35.8047 38.4364 35.2042 38.4364C34.6037 38.4364 34.1169 37.9506 34.1169 37.3513C34.1169 36.752 34.6037 36.2661 35.2042 36.2661C35.8047 36.2661 36.2915 36.752 36.2915 37.3513Z" fill="white"/> </symbol>
<symbol id="email" viewBox="0 0 19 14"> <path fill-rule="evenodd" clip-rule="evenodd" d="M18.5396 0.700012V3.50001L9.53957 10.5L0.539551 3.50001V0.700012H18.5396ZM0.539551 6.00001H1.83955V12.7H17.5396V6.00001H18.8396V14H0.539551V6.00001ZM17.2396 2.8642L9.53957 8.85309L1.83955 2.8642V2.30001H17.2396V2.8642Z"/> </symbol>
<symbol id="facebook" viewBox="0 0 15 29"> <path fill-rule="evenodd" clip-rule="evenodd" d="M5.95928 2.36478C7.14818 0.990819 8.77921 0.200195 10.5 0.200195H14C14.3037 0.200195 14.55 0.446439 14.55 0.750195V6.14321C14.55 6.44697 14.3037 6.69321 14 6.69321H10.5C10.3642 6.69321 10.2148 6.75487 10.0909 6.898C9.96491 7.04362 9.88331 7.25612 9.88331 7.49147V10.9862H14C14.1663 10.9862 14.3236 11.0615 14.428 11.1909C14.5324 11.3203 14.5727 11.49 14.5375 11.6525L13.3709 17.0455C13.3161 17.2986 13.0922 17.4792 12.8333 17.4792H9.88331V27.7153C9.88331 28.019 9.63706 28.2653 9.33331 28.2653H4.66664C4.36288 28.2653 4.11664 28.019 4.11664 27.7153V17.4792H1.16664C0.862882 17.4792 0.616638 17.233 0.616638 16.9292V11.5362C0.616638 11.2325 0.862882 10.9862 1.16664 10.9862H4.11664V7.49147C4.11664 5.58133 4.77253 3.73624 5.95928 2.36478ZM10.5 1.3002C9.12654 1.3002 7.79011 1.93005 6.79109 3.08456C5.78991 4.24157 5.21664 5.8258 5.21664 7.49147V11.5362C5.21664 11.84 4.9704 12.0862 4.66664 12.0862H1.71664V16.3792H4.66664C4.9704 16.3792 5.21664 16.6255 5.21664 16.9292V27.1653H8.78331V16.9292C8.78331 16.6255 9.02955 16.3792 9.33331 16.3792H12.3896L13.3183 12.0862H9.33331C9.02955 12.0862 8.78331 11.84 8.78331 11.5362V7.49147C8.78331 7.01165 8.94753 6.53829 9.25911 6.17822C9.57285 5.81564 10.0169 5.59321 10.5 5.59321H13.45V1.3002H10.5Z"/> </symbol>
<symbol id="htmlacademy" viewBox="0 0 27 34"> <path d="M13.6426 0.0157537L13.5 0L0 1.40733V26.0129L13.5 34L27 26.0129V1.40733L13.6426 0.0157537ZM25.2344 25.0151L13.5 31.9573L1.76561 25.0151V14.9293L13.4507 21.8451L13.4701 23.0984L5.45351 18.3548L5.44295 19.5801L13.4894 24.3885L13.5088 25.675L5.46408 20.9174L5.45351 22.1427L13.5 26.9511L21.6239 22.1182V20.8929V16.909L25.2432 14.7595L25.2344 25.0151ZM25.2344 13.4519L22.0147 15.3319L20.5325 16.2071L13.4666 12.0201L13.456 13.2454L19.4957 16.818L19.4429 16.8495L19.3126 16.9247L18.4536 17.4166L13.4666 14.4689L13.456 15.6942L17.3921 18.0222L16.4591 18.6314L16.438 18.6436L13.4666 16.902L13.456 18.1273L15.4029 19.2615L13.4155 20.4483L1.7973 13.5762L13.4349 6.61831L25.2344 13.4519ZM25.2344 12.2266L13.4401 5.31075L1.76561 12.2196V2.9897L13.5 1.76442L25.2344 2.9897V12.2266Z"/> </symbol>
<symbol id="instagram" viewBox="0 0 23 23"> <path d="M11.3877 0C13.3044 0 14.8691 0.0224609 16.082 0.0673828C17.1152 0.112305 18.0361 0.291992 18.8447 0.606445C19.6234 0.905924 20.2972 1.34017 20.8662 1.90918C21.4352 2.47819 21.8695 3.15202 22.1689 3.93066C22.4834 4.73926 22.6631 5.66016 22.708 6.69336C22.7529 7.90625 22.7754 9.47103 22.7754 11.3877C22.7754 13.3044 22.7529 14.8691 22.708 16.082C22.6631 17.1152 22.4834 18.0361 22.1689 18.8447C21.8695 19.6234 21.4352 20.2972 20.8662 20.8662C20.2972 21.4352 19.6234 21.8695 18.8447 22.1689C18.0361 22.4834 17.1152 22.6631 16.082 22.708C14.8691 22.7529 13.3044 22.7754 11.3877 22.7754C9.47103 22.7754 7.90625 22.7529 6.69336 22.708C5.66016 22.6631 4.73926 22.4834 3.93066 22.1689C3.15202 21.8695 2.47819 21.4352 1.90918 20.8662C1.34017 20.2972 0.905924 19.6234 0.606445 18.8447C0.291992 18.0361 0.112305 17.1152 0.0673828 16.082C0.0224609 14.8691 0 13.3044 0 11.3877C0 9.47103 0.0224609 7.90625 0.0673828 6.69336C0.112305 5.66016 0.291992 4.73926 0.606445 3.93066C0.905924 3.15202 1.34017 2.47819 1.90918 1.90918C2.47819 1.34017 3.15202 0.905924 3.93066 0.606445C4.73926 0.291992 5.66016 0.112305 6.69336 0.0673828C7.90625 0.0224609 9.47103 0 11.3877 0ZM11.3877 1.48242C9.39616 1.48242 7.77148 1.50488 6.51367 1.5498C5.70508 1.57975 4.95638 1.72201 4.26758 1.97656C3.18945 2.42578 2.42578 3.18945 1.97656 4.26758C1.72201 4.95638 1.57975 5.70508 1.5498 6.51367C1.50488 7.77148 1.48242 9.39616 1.48242 11.3877C1.48242 13.3792 1.50488 15.0039 1.5498 16.2617C1.57975 17.0703 1.72201 17.819 1.97656 18.5078C2.42578 19.5859 3.18945 20.3496 4.26758 20.7988C4.95638 21.0534 5.70508 21.1956 6.51367 21.2256C7.77148 21.2705 9.39616 21.293 11.3877 21.293C13.3792 21.293 15.0039 21.2705 16.2617 21.2256C17.0703 21.1956 17.819 21.0534 18.5078 20.7988C19.5859 20.3496 20.3496 19.5859 20.7988 18.5078C21.0534 17.819 21.1956 17.0703 21.2256 16.2617C21.2705 15.0039 21.293 13.3792 21.293 11.3877C21.293 9.39616 21.2705 7.77148 21.2256 6.51367C21.1956 5.70508 21.0534 4.95638 20.7988 4.26758C20.3496 3.18945 19.5859 2.42578 18.5078 1.97656C17.819 1.72201 17.0703 1.57975 16.2617 1.5498C15.0039 1.50488 13.3792 1.48242 11.3877 1.48242ZM11.3877 15.9473C12.6455 15.9473 13.7199 15.5018 14.6108 14.6108C15.5018 13.7199 15.9473 12.6455 15.9473 11.3877C15.9473 10.1299 15.5018 9.0555 14.6108 8.16455C13.7199 7.2736 12.6455 6.82812 11.3877 6.82812C10.1299 6.82812 9.0555 7.2736 8.16455 8.16455C7.2736 9.0555 6.82812 10.1299 6.82812 11.3877C6.82812 12.6455 7.2736 13.7199 8.16455 14.6108C9.0555 15.5018 10.1299 15.9473 11.3877 15.9473ZM11.3877 5.54785C13.0049 5.54785 14.3825 6.11686 15.5205 7.25488C16.6585 8.3929 17.2275 9.77051 17.2275 11.3877C17.2275 13.0049 16.6585 14.3825 15.5205 15.5205C14.3825 16.6585 13.0049 17.2275 11.3877 17.2275C9.77051 17.2275 8.3929 16.6585 7.25488 15.5205C6.11686 14.3825 5.54785 13.0049 5.54785 11.3877C5.54785 9.77051 6.11686 8.3929 7.25488 7.25488C8.3929 6.11686 9.77051 5.54785 11.3877 5.54785ZM18.8447 5.32324C18.8447 5.69759 18.71 6.01579 18.4404 6.27783C18.1709 6.53988 17.8415 6.6709 17.4521 6.6709C17.0778 6.6709 16.7596 6.53988 16.4976 6.27783C16.2355 6.01579 16.1045 5.69759 16.1045 5.32324C16.1045 4.93392 16.2355 4.60449 16.4976 4.33496C16.7596 4.06543 17.0778 3.93066 17.4521 3.93066C17.8265 3.93066 18.1522 4.06917 18.4292 4.34619C18.7062 4.62321 18.8447 4.94889 18.8447 5.32324Z"/> </symbol>
<symbol id="leaf" viewBox="0 0 60 60"> <rect width="60" height="60" fill="#68B738"/> <g clip-path="url(#clip0)"> <path d="M42.8438 16.767C42.7434 16.317 42.3647 16 41.9325 16H41.9269C36.9891 16.033 24.9816 16.916 20.1337 24.38C17.6156 28.258 17.3991 33.293 19.4897 39.345C19.5056 39.392 19.5384 39.424 19.56 39.467C18.8128 41.44 18.5231 42.753 18.5156 42.79C18.4069 43.33 18.7303 43.862 19.2366 43.978C19.3022 43.993 19.3678 44 19.4334 44C19.8656 44 20.2547 43.679 20.3494 43.21C20.3691 43.108 22.7578 32.837 31.2028 26.832C31.6341 26.526 31.7503 25.905 31.4625 25.445C31.1747 24.985 30.5934 24.86 30.1622 25.168C25.3734 28.573 22.4241 33.176 20.6897 36.824C19.4484 32.246 19.7737 28.447 21.6759 25.519C25.4194 19.755 34.2984 18.365 39.6581 18.071C38.505 19.872 37.245 23.174 37.245 29C37.245 32.12 36.4153 34.522 34.7803 36.14C32.1591 38.731 27.9009 38.974 24.7866 38.724C24.2691 38.679 23.82 39.095 23.7806 39.646C23.7413 40.196 24.1284 40.676 24.6441 40.718C25.2675 40.769 25.9331 40.8 26.625 40.8C29.7956 40.8 33.4941 40.137 36.0544 37.606C38.0887 35.595 39.12 32.7 39.12 29.001C39.12 19.902 42.3356 17.905 42.3516 17.896C42.7416 17.687 42.9459 17.219 42.8438 16.767Z" fill="white"/> </g>  </symbol>
<symbol id="meal" viewBox="0 0 60 60"> <rect width="60" height="60" fill="#68B738"/> <path fill-rule="evenodd" clip-rule="evenodd" d="M19.5 15C20.0523 15 20.5 15.4477 20.5 16V21.5C20.5 22.0569 20.692 22.8152 21.2009 23.4166C21.5598 23.8407 22.1181 24.2374 23 24.4097V16C23 15.4477 23.4477 15 24 15C24.5523 15 25 15.4477 25 16V24.4097C25.8819 24.2373 26.4402 23.8407 26.7991 23.4166C27.308 22.8152 27.5 22.0569 27.5 21.5V16C27.5 15.4477 27.9477 15 28.5 15C29.0523 15 29.5 15.4477 29.5 16V21.5C29.5 22.4431 29.192 23.6848 28.3259 24.7084C27.5863 25.5825 26.4925 26.2344 25 26.4352V44C25 44.5523 24.5523 45 24 45C23.4477 45 23 44.5523 23 44V26.4353C21.5074 26.2344 20.4137 25.5825 19.6741 24.7084C18.808 23.6848 18.5 22.4431 18.5 21.5V16C18.5 15.4477 18.9477 15 19.5 15ZM37.7071 15.2929C37.4211 15.0069 36.991 14.9214 36.6173 15.0761C36.2436 15.2309 36 15.5956 36 16V44C36 44.5523 36.4477 45 37 45C37.5523 45 38 44.5523 38 44V35H41.5C42.0523 35 42.5 34.5523 42.5 34C42.5 28.5081 41.7373 24.2804 40.7659 21.2108C39.8038 18.1706 38.6156 16.2014 37.7071 15.2929ZM40.4911 33H38V19.519C38.2885 20.1715 38.5807 20.9346 38.8591 21.8142C39.7051 24.4875 40.4053 28.1836 40.4911 33Z" fill="white"/> </symbol>
<symbol id="phone" viewBox="0 0 20 21"> <path fill-rule="evenodd" clip-rule="evenodd" d="M8.37362 14.2V20.4C8.37505 20.475 8.36034 20.5494 8.33056 20.6176C8.30074 20.6859 8.25665 20.7462 8.20147 20.7942C8.14629 20.8423 8.0815 20.8767 8.01186 20.895C7.94222 20.9133 7.86953 20.915 7.79916 20.9H3.3951C3.01339 20.9024 2.63534 20.8224 2.28469 20.6648C1.93404 20.5072 1.6184 20.2756 1.35763 19.9844C1.09686 19.6932 0.896599 19.3489 0.769402 18.9729C0.642235 18.597 0.590904 18.1977 0.618645 17.8V3.90001C0.631004 3.50598 0.717613 3.11835 0.873497 2.7593C1.02938 2.40025 1.25149 2.07681 1.52715 1.80748C1.80279 1.53815 2.12655 1.3282 2.47991 1.18965C2.83331 1.0511 3.20937 0.986659 3.5866 1.00001H7.79916C7.95388 1.02326 8.09905 1.09204 8.21774 1.19828C8.33642 1.30453 8.4237 1.44387 8.46935 1.60001V7.90001C8.45831 8.05531 8.39422 8.2013 8.28881 8.31142C8.18337 8.42154 8.0436 8.48846 7.89492 8.50001H3.68233C3.68728 8.18336 3.8099 7.88112 4.02428 7.65718C4.2387 7.43324 4.52807 7.30516 4.83123 7.30001H7.12899V2.30001H3.3951C2.95238 2.31824 2.53408 2.51686 2.22988 2.85331C1.92565 3.18977 1.75967 3.6373 1.76754 4.10001V18.1C1.7785 18.337 1.83447 18.5693 1.93215 18.7834C2.02984 18.9976 2.16729 19.1893 2.33657 19.3475C2.50582 19.5057 2.70348 19.6271 2.91808 19.7048C3.13268 19.7825 3.35992 19.8149 3.5866 19.8H7.12899V14.8H4.73547C4.4323 14.7949 4.14294 14.6668 3.92855 14.4428C3.71416 14.2189 3.59151 13.9167 3.5866 13.6H7.79916C7.94787 13.6116 8.08764 13.6785 8.19305 13.7886C8.29848 13.8987 8.36254 14.0447 8.37362 14.2ZM9.61825 10.4H17.7562L15.7456 8.40001L16.6073 7.50001L19.5752 10.6C19.6684 10.7298 19.7188 10.8877 19.7188 11.05C19.7188 11.2123 19.6684 11.3702 19.5752 11.5L16.6073 14.6L15.7456 13.7L17.7562 11.6H9.61825V10.4Z"/> </symbol>
<symbol id="plus" viewBox="0 0 30 30"> <line x1="15" x2="15" y2="30" stroke="#D3D3D3"/> <line x1="30" y1="15" y2="15" stroke="#D3D3D3"/> </symbol>
<symbol id="powder" viewBox="0 0 60 60"> <rect width="60" height="60" fill="#68B738"/> <path fill-rule="evenodd" clip-rule="evenodd" d="M26.6068 12.9899C24.8464 12.9899 23.4195 14.5147 23.4195 16.397C23.4195 18.2792 24.846 19.8036 26.6068 19.8036C28.3676 19.8036 29.7941 18.2797 29.7941 16.397C29.7936 14.5142 28.3672 12.9899 26.6068 12.9899ZM26.6063 18.4657C25.5374 18.4657 24.6711 17.5396 24.6711 16.3965C24.6711 15.2538 25.5374 14.3272 26.6063 14.3272C27.6757 14.3272 28.5421 15.2538 28.5421 16.3965C28.5421 17.5396 27.6757 18.4657 26.6063 18.4657ZM35.7762 31.4731C34.0702 31.4731 32.6877 32.9514 32.6877 34.7741C32.6877 36.5983 34.0707 38.0761 35.7762 38.0761C37.4818 38.0761 38.8643 36.5978 38.8643 34.7741C38.8643 32.9509 37.4813 31.4731 35.7762 31.4731ZM35.7762 36.4864C34.8922 36.4864 34.1753 35.7201 34.1753 34.7751C34.1753 33.8291 34.8922 33.0633 35.7762 33.0633C36.6603 33.0633 37.3776 33.8291 37.3776 34.7751C37.3776 35.7201 36.6603 36.4864 35.7762 36.4864ZM20.8856 33.1132C20.8856 31.7303 21.9333 30.6104 23.2269 30.6104C24.5206 30.6104 25.5682 31.7308 25.5682 33.1132C25.5682 34.4956 24.5206 35.616 23.2269 35.616C21.9333 35.616 20.8856 34.4956 20.8856 33.1132ZM23.9665 32.9645C23.9774 32.9631 23.9875 32.9634 23.9965 32.9656C23.9869 32.9649 23.9769 32.9645 23.9665 32.9645ZM33.5002 22.7626C33.5002 22.7626 36.5402 21.9242 39.6781 24.2564C39.7612 24.326 39.8439 24.3941 39.925 24.4609C40.7301 25.1238 41.3873 25.6648 40.8304 26.379L40.8191 26.3902C40.4804 26.7262 40.1815 27.0228 39.1144 25.8549C38.0604 25.0949 36.3948 23.9566 33.5002 24.4134C32.3724 24.6497 31.5386 24.9641 29.9445 26.5625C28.3509 28.161 25.9724 29.2876 23.4472 29.0517C20.9219 28.8163 19.5983 27.7938 18.2009 26.5097C17.9068 26.0903 17.9068 25.6446 18.0781 25.3826C18.2494 25.1206 18.9114 24.8585 19.2793 25.2513C19.6473 25.6446 21.3877 27.2169 23.1037 27.3216L23.1048 27.3216C24.8208 27.4262 26.537 27.5308 28.8407 25.356C31.0302 23.2919 32.1796 23.0457 33.3184 22.8018C33.3789 22.7888 33.4395 22.7759 33.5002 22.7626ZM43.6457 21.1574V39.8155C43.6457 39.8155 43.7037 41.3127 42.7743 42.4515C41.844 43.5902 40.7167 44.0044 39.8584 44.0068C39.0002 44.0092 19.2766 44.0092 19.2766 44.0092C19.2766 44.0092 17.9956 44.0916 16.9018 43.1529C15.8075 42.2136 15.3539 41.1529 15.3539 39.816V21.279C15.3566 21.0905 15.406 20.5025 15.942 20.5025H16.2493C16.2493 20.5025 16.9235 20.4764 16.9235 21.3148V39.4484C16.9235 39.4484 16.813 40.4965 17.3766 41.2958C17.9408 42.095 18.6028 42.2393 18.9825 42.3047C19.4606 42.3314 39.6378 42.3314 39.6378 42.3314C39.6378 42.3314 40.447 42.4234 41.2554 41.7283C42.0031 41.0076 42.0643 40.1691 42.0765 39.8412C42.0861 39.5875 42.0812 28.0973 42.079 22.9515C42.0787 22.2806 42.0785 21.7175 42.0783 21.3012V21.2407C42.0797 21.0586 42.1227 20.502 42.6162 20.502H43.1218C43.2718 20.5074 43.6457 20.579 43.6457 21.1574Z" fill="white"/> </symbol>
<symbol id="vkontakte" viewBox="0 0 29 18"> <path d="M0.0914307 2.48964C0.0914307 1.63461 0.643326 1.17356 1.74712 1.1065L6.00052 1.13165C6.28599 1.13165 6.47629 1.25739 6.57145 1.50887C7.00916 2.76626 7.4992 3.85182 8.04158 4.76552C8.58397 5.67923 9.29287 6.73125 10.1683 7.92159C10.2444 8.07248 10.3681 8.14792 10.5394 8.14792C10.6726 8.14792 10.7773 8.08924 10.8534 7.97189L10.939 7.69526L10.9676 3.34467C10.9676 3.04289 10.8867 2.84171 10.7249 2.74112C10.5632 2.64052 10.2634 2.56508 9.82573 2.51478C9.48318 2.46449 9.3119 2.28007 9.3119 1.96153C9.3119 1.89447 9.32141 1.84417 9.34044 1.81064C9.74009 0.720899 10.8819 0.176027 12.766 0.176027L14.3646 0.150879C15.0878 0.150879 15.6872 0.310149 16.163 0.62869C16.6388 0.94723 16.8767 1.45019 16.8767 2.13757V7.84615C17.0099 7.92997 17.1336 7.97189 17.2478 7.97189C17.5332 7.97189 17.7806 7.821 17.99 7.51922C20.0834 4.93737 21.2157 3.21054 21.387 2.33875C21.387 2.32198 21.406 2.28007 21.4441 2.21301C21.5773 1.96153 21.7962 1.74358 22.1007 1.55916C22.4051 1.37474 22.6716 1.24901 22.9 1.18194C22.9761 1.14841 23.0617 1.13165 23.1569 1.13165H27.5816L27.867 1.1568C28.2476 1.1568 28.5426 1.31607 28.752 1.63461C28.8281 1.7352 28.8804 1.84417 28.909 1.96153C28.9375 2.07889 28.9565 2.19624 28.966 2.3136C28.9756 2.43096 28.9803 2.49802 28.9803 2.51478V2.69082C28.8471 3.3782 28.5093 4.11168 27.9669 4.89126C27.4245 5.67085 26.7347 6.51331 25.8973 7.41863C25.06 8.32396 24.5366 8.91912 24.3273 9.20413C24.156 9.40532 24.0704 9.58974 24.0704 9.75739C24.0704 9.89151 24.1465 10.0424 24.2987 10.2101L28.4665 14.8373C28.6949 15.1055 28.809 15.3989 28.809 15.7174C28.809 16.103 28.6378 16.4216 28.2952 16.6731C27.9527 16.9245 27.5435 17.0671 27.0677 17.1006L26.5824 17.1257H22.2434C22.2244 17.1257 22.1863 17.1299 22.1292 17.1383C22.0721 17.1467 22.034 17.1509 22.015 17.1509C21.5963 17.1509 21.2062 16.9916 20.8446 16.6731C20.7114 16.5389 19.8169 15.5498 18.1613 13.7056C18.0661 13.5883 17.9329 13.4793 17.7616 13.3787C17.6855 13.6469 17.5856 14.0325 17.4619 14.5355C17.3382 15.0385 17.2478 15.3989 17.1907 15.6169L17.105 16.0444C16.9147 16.6312 16.5151 16.9832 15.9061 17.1006L15.5065 17.1257H12.7089C11.1293 17.1257 9.55454 16.4887 7.98449 15.2145C6.41444 13.9403 5.0014 12.2931 3.74536 10.2729C2.48932 8.2527 1.31892 5.90137 0.234162 3.21893C0.139008 3.00098 0.0914307 2.75788 0.0914307 2.48964ZM17.2478 9.00295C16.8481 9.00295 16.4865 8.90655 16.163 8.71375C15.8395 8.52095 15.6777 8.2569 15.6777 7.92159V2.13757C15.6777 1.80226 15.5826 1.56335 15.3923 1.42085C15.202 1.27834 14.8689 1.20709 14.3931 1.20709L12.766 1.25739C11.9477 1.25739 11.3292 1.38313 10.9105 1.63461C11.7479 1.98668 12.1665 2.5567 12.1665 3.34467V7.7707C12.1285 8.18983 11.9382 8.53771 11.5956 8.81434C11.253 9.09097 10.8724 9.22928 10.4538 9.22928C9.88282 9.22928 9.44511 8.98619 9.14062 8.49999C7.65621 6.52169 6.55242 4.64398 5.82924 2.86686L5.57233 2.21301L1.77566 2.18786C1.52826 2.18786 1.39029 2.20044 1.36174 2.22558C1.3332 2.25073 1.31892 2.32198 1.31892 2.43934C1.31892 2.59023 1.33795 2.7495 1.37602 2.91715L1.97549 4.32544C3.57408 7.9635 5.31065 10.8304 7.18519 12.926C9.05974 15.0217 10.901 16.0695 12.7089 16.0695H15.5635C15.6777 16.0695 15.7634 16.0402 15.8205 15.9815C15.8776 15.9228 15.9251 15.8097 15.9632 15.642L16.0203 15.3905L16.5627 13.1775C16.7149 12.8757 16.8481 12.6745 16.9623 12.574C17.1717 12.3895 17.4191 12.2973 17.7045 12.2973C18.1613 12.2973 18.6275 12.5404 19.1033 13.0266L21.5297 15.7426C21.682 15.9605 21.8437 16.0695 22.015 16.0695H26.7252C27.2961 16.0695 27.5816 15.9438 27.5816 15.6923C27.5816 15.6085 27.553 15.5246 27.4959 15.4408L23.3567 10.889C23.0332 10.537 22.8714 10.1598 22.8714 9.75739C22.8714 9.35502 23.0237 8.96942 23.3281 8.60058C23.5755 8.26528 24.0561 7.70783 24.7697 6.92825C25.4834 6.14866 26.1067 5.41937 26.6395 4.74038C27.1724 4.06138 27.5245 3.44526 27.6957 2.892L27.7814 2.56508C27.7623 2.53155 27.7528 2.47706 27.7528 2.40162C27.7528 2.32617 27.7433 2.2633 27.7243 2.21301H23.2425C22.957 2.3136 22.7287 2.46449 22.5574 2.66567L22.3861 3.14348C21.9103 4.30029 20.6638 6.08579 18.6465 8.49999C18.2469 8.8353 17.7806 9.00295 17.2478 9.00295Z"/> </symbol>
</svg>