<svg width="70" height="70" fill="none" xmlns="http://www.w3.org/2000/svg"><path fill="#EEE" d="M0 0h70v70H0z"/><path d="M16.718 44.136a8.547 8.547 0 01-1.499-5.438v-7.857a8.679 8.679 0 011.478-5.49c.992-1.25 2.686-1.871 5.084-1.864 2.398.007 4.021.555 4.87 1.645a6.934 6.934 0 011.424 4.703v1.844h-4.431v-2a10.259 10.259 0 00-.14-1.572 1.746 1.746 0 00-.503-.995 1.68 1.68 0 00-1.23-.388 1.593 1.593 0 00-.93.145c-.287.14-.524.364-.676.64a5.62 5.62 0 00-.364 2.305v9.974c-.049.79.094 1.58.417 2.305.155.261.384.473.66.609s.586.19.892.155c.302.042.61-.01.878-.15.27-.139.487-.358.621-.625a5.997 5.997 0 00.332-2.294v-2.095h4.432v1.812a7.474 7.474 0 01-1.317 4.83c-.942 1.152-2.57 1.718-4.881 1.718-2.312 0-4.122-.629-5.117-1.917zm17.116-20.189h5.128l4.327 21.645h-4.262l-.768-4.782h-3.592l-.867 4.75h-4.327l4.36-21.614zm3.949 14.142l-1.364-8.7-1.352 8.7h2.716zm8.526-10.88h-3.48v-3.262h11.513v3.262h-3.437v18.383h-4.607l.01-18.383z" fill="#111"/></svg>