<svg width="29" height="33" viewBox="0 0 29 33" fill="none" xmlns="http://www.w3.org/2000/svg">
<path fill-rule="evenodd" clip-rule="evenodd" d="M11.6068 0.989868C9.8464 0.989868 8.41951 2.51468 8.41951 4.39696C8.41951 6.27924 9.84595 7.80357 11.6068 7.80357C13.3676 7.80357 14.7941 6.27973 14.7941 4.39696C14.7936 2.5142 13.3672 0.989868 11.6068 0.989868ZM11.6063 6.46573C10.5374 6.46573 9.67104 5.5396 9.67104 4.39648C9.67104 3.25384 10.5374 2.32723 11.6063 2.32723C12.6757 2.32723 13.5421 3.25384 13.5421 4.39648C13.5421 5.5396 12.6757 6.46573 11.6063 6.46573ZM20.7762 19.4731C19.0702 19.4731 17.6877 20.9514 17.6877 22.7741C17.6877 24.5983 19.0707 26.0761 20.7762 26.0761C22.4818 26.0761 23.8643 24.5978 23.8643 22.7741C23.8643 20.9509 22.4813 19.4731 20.7762 19.4731ZM20.7762 24.4864C19.8922 24.4864 19.1753 23.7201 19.1753 22.7751C19.1753 21.8291 19.8922 21.0633 20.7762 21.0633C21.6603 21.0633 22.3776 21.8291 22.3776 22.7751C22.3776 23.7201 21.6603 24.4864 20.7762 24.4864ZM5.88563 21.1132C5.88563 19.7303 6.93325 18.6104 8.22692 18.6104C9.5206 18.6104 10.5682 19.7308 10.5682 21.1132C10.5682 22.4956 9.5206 23.616 8.22692 23.616C6.93325 23.616 5.88563 22.4956 5.88563 21.1132ZM8.96654 20.9645C8.97742 20.9631 8.98745 20.9634 8.99654 20.9656C8.98687 20.9649 8.97686 20.9645 8.96654 20.9645ZM18.5002 10.7626C18.5002 10.7626 21.5402 9.92416 24.6781 12.2564C24.7612 12.326 24.8439 12.3941 24.925 12.4609C25.7301 13.1238 26.3873 13.6648 25.8304 14.379L25.8191 14.3902C25.4804 14.7262 25.1815 15.0228 24.1144 13.8549C23.0604 13.0949 21.3947 11.9566 18.5002 12.4134C17.3724 12.6497 16.5386 12.9641 14.9445 14.5625C13.3509 16.161 10.9724 17.2876 8.44715 17.0517C5.92188 16.8163 4.59831 15.7938 3.20087 14.5097C2.90679 14.0903 2.90679 13.6446 3.07807 13.3826C3.24935 13.1206 3.91137 12.8585 4.27931 13.2513C4.64724 13.6446 6.3877 15.2169 8.10368 15.3216L8.10476 15.3216C9.82084 15.4262 11.537 15.5308 13.8407 13.356C16.0302 11.2919 17.1796 11.0457 18.3183 10.8018C18.3789 10.7888 18.4395 10.7759 18.5002 10.7626ZM28.6456 9.15738V27.8155C28.6456 27.8155 28.7036 29.3127 27.7743 30.4515C26.844 31.5902 25.7166 32.0044 24.8584 32.0068C24.0002 32.0092 4.27658 32.0092 4.27658 32.0092C4.27658 32.0092 2.9956 32.0916 1.90176 31.1529C0.80746 30.2136 0.353882 29.1529 0.353882 27.816V9.27896C0.3566 9.09054 0.405991 8.50251 0.942038 8.50251H1.24926C1.24926 8.50251 1.92351 8.47635 1.92351 9.3148V27.4484C1.92351 27.4484 1.81294 28.4965 2.37663 29.2958C2.94077 30.095 3.60279 30.2393 3.98251 30.3047C4.46055 30.3314 24.6378 30.3314 24.6378 30.3314C24.6378 30.3314 25.447 30.4234 26.2554 29.7283C27.0031 29.0076 27.0642 28.1691 27.0765 27.8412C27.0861 27.5875 27.0812 16.0973 27.079 10.9515C27.0787 10.2806 27.0784 9.71749 27.0783 9.30124V9.24069C27.0796 9.05857 27.1227 8.50202 27.6161 8.50202H28.1218C28.2718 8.50735 28.6456 8.57904 28.6456 9.15738Z" fill="white"/>
</svg>
