<svg width="32" height="33" viewBox="0 0 32 33" fill="none" xmlns="http://www.w3.org/2000/svg">
<path fill-rule="evenodd" clip-rule="evenodd" d="M28 17.6145C28 10.9012 22.9148 5.41276 16.5 5.02222V3.5H22.75C23.1642 3.5 23.5 3.16421 23.5 2.75C23.5 2.33579 23.1642 2 22.75 2H8.75C8.33579 2 8 2.33579 8 2.75C8 3.16421 8.33579 3.5 8.75 3.5H15V5.02445C8.60205 5.4331 3.53564 10.9136 3.53564 17.6145C3.53564 21.4288 5.17729 24.8477 7.77166 27.1608C8.22438 27.5644 8.28489 28.2708 7.86173 28.7054L6.42757 30.1781C6.16985 30.4427 6.16984 30.8645 6.42756 31.1291C6.69513 31.4039 7.13664 31.4039 7.40421 31.1292L9.28384 29.199C9.60245 28.8718 10.1004 28.8061 10.5102 29.0076C12.103 29.7907 13.8858 30.229 15.7678 30.229C17.609 30.229 19.3553 29.8095 20.9215 29.0581C21.3298 28.8622 21.8226 28.9298 22.1385 29.2542L23.9644 31.1292C24.2319 31.4039 24.6734 31.4039 24.941 31.1292C25.1987 30.8645 25.1987 30.4427 24.941 30.1781L23.5843 28.7849C23.1584 28.3475 23.2228 27.6356 23.682 27.2333C26.3238 24.9195 28 21.4688 28 17.6145ZM26.6409 17.6145C26.6409 23.8072 21.7728 28.8274 15.7678 28.8274C9.7628 28.8274 4.89478 23.8072 4.89478 17.6145C4.89478 11.4218 9.7628 6.40161 15.7678 6.40161C21.7728 6.40161 26.6409 11.4218 26.6409 17.6145ZM15.0083 18.1663C15.0083 18.5857 15.3483 18.9257 15.7677 18.9257C16.2113 18.9257 16.5708 18.5661 16.5708 18.1226V9.94092C16.5708 9.50942 16.221 9.15963 15.7895 9.15963C15.3581 9.15963 15.0083 9.50942 15.0083 9.94092V18.1663ZM10.3311 12.4149C10.9316 12.4149 11.4184 11.929 11.4184 11.3297C11.4184 10.7305 10.9316 10.2446 10.3311 10.2446C9.73062 10.2446 9.24381 10.7305 9.24381 11.3297C9.24381 11.929 9.73062 12.4149 10.3311 12.4149ZM21.2042 12.4149C21.8047 12.4149 22.2915 11.929 22.2915 11.3297C22.2915 10.7305 21.8047 10.2446 21.2042 10.2446C20.6037 10.2446 20.1169 10.7305 20.1169 11.3297C20.1169 11.929 20.6037 12.4149 21.2042 12.4149ZM11.4184 24.3511C11.4184 24.9504 10.9316 25.4363 10.3311 25.4363C9.73062 25.4363 9.24381 24.9504 9.24381 24.3511C9.24381 23.7518 9.73062 23.266 10.3311 23.266C10.9316 23.266 11.4184 23.7518 11.4184 24.3511ZM15.7677 27.6065C16.3682 27.6065 16.855 27.1207 16.855 26.5214C16.855 25.9221 16.3682 25.4363 15.7677 25.4363C15.1672 25.4363 14.6804 25.9221 14.6804 26.5214C14.6804 27.1207 15.1672 27.6065 15.7677 27.6065ZM8.15654 17.7747C8.15654 18.374 7.66974 18.8599 7.06924 18.8599C6.46874 18.8599 5.98193 18.374 5.98193 17.7747C5.98193 17.1754 6.46874 16.6896 7.06924 16.6896C7.66974 16.6896 8.15654 17.1754 8.15654 17.7747ZM24.4661 18.8599C25.0666 18.8599 25.5534 18.374 25.5534 17.7747C25.5534 17.1754 25.0666 16.6896 24.4661 16.6896C23.8656 16.6896 23.3788 17.1754 23.3788 17.7747C23.3788 18.374 23.8656 18.8599 24.4661 18.8599ZM22.2915 24.3511C22.2915 24.9504 21.8047 25.4363 21.2042 25.4363C20.6037 25.4363 20.1169 24.9504 20.1169 24.3511C20.1169 23.7518 20.6037 23.266 21.2042 23.266C21.8047 23.266 22.2915 23.7518 22.2915 24.3511Z" fill="white"/>
</svg>
