<svg width="25" height="30" viewBox="0 0 25 30" fill="none" xmlns="http://www.w3.org/2000/svg">
<path fill-rule="evenodd" clip-rule="evenodd" d="M25 15.6145C25 8.90121 19.9148 3.41276 13.5 3.02222V1.5H19.75C20.1642 1.5 20.5 1.16421 20.5 0.75C20.5 0.335787 20.1642 0 19.75 0H5.75C5.33579 0 5 0.335787 5 0.75C5 1.16421 5.33579 1.5 5.75 1.5H12V3.02445C5.60205 3.4331 0.535645 8.91365 0.535645 15.6145C0.535645 19.4288 2.17729 22.8477 4.77166 25.1608C5.22438 25.5644 5.28489 26.2708 4.86173 26.7054L3.42756 28.1781C3.16985 28.4427 3.16984 28.8645 3.42756 29.1292C3.69513 29.4039 4.13664 29.4039 4.40421 29.1292L6.28384 27.199C6.60245 26.8718 7.10039 26.8061 7.51021 27.0076C9.10297 27.7907 10.8858 28.229 12.7678 28.229C14.609 28.229 16.3553 27.8095 17.9215 27.0581C18.3298 26.8622 18.8226 26.9298 19.1385 27.2542L20.9644 29.1292C21.2319 29.4039 21.6734 29.4039 21.941 29.1292C22.1987 28.8645 22.1987 28.4427 21.941 28.1781L20.5843 26.7849C20.1584 26.3475 20.2228 25.6356 20.682 25.2333C23.3238 22.9195 25 19.4688 25 15.6145ZM23.6409 15.6145C23.6409 21.8072 18.7728 26.8274 12.7678 26.8274C6.7628 26.8274 1.89478 21.8072 1.89478 15.6145C1.89478 9.42179 6.7628 4.40161 12.7678 4.40161C18.7728 4.40161 23.6409 9.42179 23.6409 15.6145ZM12.0083 16.1663C12.0083 16.5857 12.3483 16.9257 12.7677 16.9257C13.2113 16.9257 13.5708 16.5661 13.5708 16.1226V7.94092C13.5708 7.50942 13.221 7.15963 12.7895 7.15963C12.3581 7.15963 12.0083 7.50942 12.0083 7.94092V16.1663ZM7.33112 10.415C7.93162 10.415 8.41842 9.92916 8.41842 9.32987C8.41842 8.73058 7.93162 8.24475 7.33112 8.24475C6.73062 8.24475 6.24381 8.73058 6.24381 9.32987C6.24381 9.92916 6.73062 10.415 7.33112 10.415ZM18.2042 10.415C18.8047 10.415 19.2915 9.92916 19.2915 9.32987C19.2915 8.73058 18.8047 8.24475 18.2042 8.24475C17.6037 8.24475 17.1169 8.73058 17.1169 9.32987C17.1169 9.92916 17.6037 10.415 18.2042 10.415ZM8.41842 22.3513C8.41842 22.9506 7.93162 23.4364 7.33112 23.4364C6.73062 23.4364 6.24381 22.9506 6.24381 22.3513C6.24381 21.752 6.73062 21.2661 7.33112 21.2661C7.93162 21.2661 8.41842 21.752 8.41842 22.3513ZM12.7677 25.6066C13.3682 25.6066 13.855 25.1208 13.855 24.5215C13.855 23.9222 13.3682 23.4364 12.7677 23.4364C12.1672 23.4364 11.6804 23.9222 11.6804 24.5215C11.6804 25.1208 12.1672 25.6066 12.7677 25.6066ZM5.15654 15.7749C5.15654 16.3742 4.66974 16.86 4.06924 16.86C3.46874 16.86 2.98193 16.3742 2.98193 15.7749C2.98193 15.1756 3.46874 14.6897 4.06924 14.6897C4.66974 14.6897 5.15654 15.1756 5.15654 15.7749ZM21.4661 16.86C22.0666 16.86 22.5534 16.3742 22.5534 15.7749C22.5534 15.1756 22.0666 14.6897 21.4661 14.6897C20.8656 14.6897 20.3788 15.1756 20.3788 15.7749C20.3788 16.3742 20.8656 16.86 21.4661 16.86ZM19.2915 22.3513C19.2915 22.9506 18.8047 23.4364 18.2042 23.4364C17.6037 23.4364 17.1169 22.9506 17.1169 22.3513C17.1169 21.752 17.6037 21.2661 18.2042 21.2661C18.8047 21.2661 19.2915 21.752 19.2915 22.3513Z" fill="white"/>
</svg>
