<svg width="60" height="60" viewBox="0 0 60 60" fill="none" xmlns="http://www.w3.org/2000/svg">
<rect width="60" height="60" fill="#68B738"/>
<path fill-rule="evenodd" clip-rule="evenodd" d="M42 30.6145C42 23.9012 36.9148 18.4128 30.5 18.0222V16.5H36.75C37.1642 16.5 37.5 16.1642 37.5 15.75C37.5 15.3358 37.1642 15 36.75 15H22.75C22.3358 15 22 15.3358 22 15.75C22 16.1642 22.3358 16.5 22.75 16.5H29V18.0244C22.602 18.4331 17.5356 23.9136 17.5356 30.6145C17.5356 34.4288 19.1773 37.8477 21.7717 40.1608C22.2244 40.5644 22.2849 41.2708 21.8617 41.7054L20.4276 43.1781C20.1698 43.4427 20.1698 43.8645 20.4276 44.1292C20.6951 44.4039 21.1366 44.4039 21.4042 44.1292L23.2838 42.199C23.6025 41.8718 24.1004 41.8061 24.5102 42.0076C26.103 42.7907 27.8858 43.229 29.7678 43.229C31.609 43.229 33.3553 42.8095 34.9215 42.0581C35.3298 41.8622 35.8226 41.9298 36.1385 42.2542L37.9644 44.1292C38.2319 44.4039 38.6734 44.4039 38.941 44.1292C39.1987 43.8645 39.1987 43.4427 38.941 43.1781L37.5843 41.7849C37.1584 41.3475 37.2228 40.6356 37.682 40.2333C40.3238 37.9195 42 34.4688 42 30.6145ZM40.6409 30.6145C40.6409 36.8072 35.7728 41.8274 29.7678 41.8274C23.7628 41.8274 18.8948 36.8072 18.8948 30.6145C18.8948 24.4218 23.7628 19.4016 29.7678 19.4016C35.7728 19.4016 40.6409 24.4218 40.6409 30.6145ZM29.0083 31.1663C29.0083 31.5857 29.3483 31.9257 29.7677 31.9257C30.2113 31.9257 30.5708 31.5661 30.5708 31.1226V22.9409C30.5708 22.5094 30.221 22.1596 29.7895 22.1596C29.3581 22.1596 29.0083 22.5094 29.0083 22.9409V31.1663ZM24.3311 25.415C24.9316 25.415 25.4184 24.9292 25.4184 24.3299C25.4184 23.7306 24.9316 23.2448 24.3311 23.2448C23.7306 23.2448 23.2438 23.7306 23.2438 24.3299C23.2438 24.9292 23.7306 25.415 24.3311 25.415ZM35.2042 25.415C35.8047 25.415 36.2915 24.9292 36.2915 24.3299C36.2915 23.7306 35.8047 23.2448 35.2042 23.2448C34.6037 23.2448 34.1169 23.7306 34.1169 24.3299C34.1169 24.9292 34.6037 25.415 35.2042 25.415ZM25.4184 37.3513C25.4184 37.9506 24.9316 38.4364 24.3311 38.4364C23.7306 38.4364 23.2438 37.9506 23.2438 37.3513C23.2438 36.752 23.7306 36.2661 24.3311 36.2661C24.9316 36.2661 25.4184 36.752 25.4184 37.3513ZM29.7677 40.6066C30.3682 40.6066 30.855 40.1208 30.855 39.5215C30.855 38.9222 30.3682 38.4364 29.7677 38.4364C29.1672 38.4364 28.6804 38.9222 28.6804 39.5215C28.6804 40.1208 29.1672 40.6066 29.7677 40.6066ZM22.1565 30.7749C22.1565 31.3742 21.6697 31.86 21.0692 31.86C20.4687 31.86 19.9819 31.3742 19.9819 30.7749C19.9819 30.1756 20.4687 29.6897 21.0692 29.6897C21.6697 29.6897 22.1565 30.1756 22.1565 30.7749ZM38.4661 31.86C39.0666 31.86 39.5534 31.3742 39.5534 30.7749C39.5534 30.1756 39.0666 29.6897 38.4661 29.6897C37.8656 29.6897 37.3788 30.1756 37.3788 30.7749C37.3788 31.3742 37.8656 31.86 38.4661 31.86ZM36.2915 37.3513C36.2915 37.9506 35.8047 38.4364 35.2042 38.4364C34.6037 38.4364 34.1169 37.9506 34.1169 37.3513C34.1169 36.752 34.6037 36.2661 35.2042 36.2661C35.8047 36.2661 36.2915 36.752 36.2915 37.3513Z" fill="white"/>
</svg>
