<svg width="15" height="29" viewBox="0 0 15 29" fill="none" xmlns="http://www.w3.org/2000/svg">
<path fill-rule="evenodd" clip-rule="evenodd" d="M5.95928 2.36478C7.14818 0.990819 8.77921 0.200195 10.5 0.200195H14C14.3037 0.200195 14.55 0.446439 14.55 0.750195V6.14321C14.55 6.44697 14.3037 6.69321 14 6.69321H10.5C10.3642 6.69321 10.2148 6.75487 10.0909 6.898C9.96491 7.04362 9.88331 7.25612 9.88331 7.49147V10.9862H14C14.1663 10.9862 14.3236 11.0615 14.428 11.1909C14.5324 11.3203 14.5727 11.49 14.5375 11.6525L13.3709 17.0455C13.3161 17.2986 13.0922 17.4792 12.8333 17.4792H9.88331V27.7153C9.88331 28.019 9.63706 28.2653 9.33331 28.2653H4.66664C4.36288 28.2653 4.11664 28.019 4.11664 27.7153V17.4792H1.16664C0.862882 17.4792 0.616638 17.233 0.616638 16.9292V11.5362C0.616638 11.2325 0.862882 10.9862 1.16664 10.9862H4.11664V7.49147C4.11664 5.58133 4.77253 3.73624 5.95928 2.36478ZM10.5 1.3002C9.12654 1.3002 7.79011 1.93005 6.79109 3.08456C5.78991 4.24157 5.21664 5.8258 5.21664 7.49147V11.5362C5.21664 11.84 4.9704 12.0862 4.66664 12.0862H1.71664V16.3792H4.66664C4.9704 16.3792 5.21664 16.6255 5.21664 16.9292V27.1653H8.78331V16.9292C8.78331 16.6255 9.02955 16.3792 9.33331 16.3792H12.3896L13.3183 12.0862H9.33331C9.02955 12.0862 8.78331 11.84 8.78331 11.5362V7.49147C8.78331 7.01165 8.94753 6.53829 9.25911 6.17822C9.57285 5.81564 10.0169 5.59321 10.5 5.59321H13.45V1.3002H10.5Z"/>
</svg>
