<svg width="118" height="22" fill="none" xmlns="http://www.w3.org/2000/svg"><path d="M1.7 19.7a8.2 8.2 0 01-1.4-5.2V7.1C0 5.2.6 3.4 1.6 1.9 2.6.7 4.2 0 6.4 0c2.2 0 3.8.5 4.5 1.6 1 1.2 1.5 2.8 1.4 4.4V8H8v-2L8 4.6c0-.4-.2-.7-.5-1a1.6 1.6 0 00-1.1-.3 1.5 1.5 0 00-1.5.7c-.3.7-.4 1.5-.4 2.2v9.4c0 .8.1 1.5.4 2.2a1.5 1.5 0 001.5.8 1.4 1.4 0 001.4-.8c.2-.7.3-1.4.3-2.2v-2h4.1v1.8c.2 1.6-.3 3.2-1.2 4.5-.9 1.1-2.4 1.7-4.6 1.7-2.1 0-3.8-.6-4.7-1.8zM18 .4h4.7l4 20.8h-4l-.7-4.6h-3.3l-.8 4.6h-4l4-20.8zM21.5 14l-1.3-8.4-1.2 8.4h2.5zM29.7 3.5h-3.2V.4h10.7v3.1H34v17.7h-4.3V3.5z" fill="#111"/><path d="M45.6.4h8.1v2.2h-5.2v6.8h4.3v2h-4.3v7.7h5.3v2.1h-8.2V.4zM56.2.4h2l6 13.8V.4h2.4v20.8h-1.9L58.7 7v14.2h-2.5V.4zM69.8.4H78v2.2h-5.2v6.8H77v2h-4.2v7.7H78v2.1h-8.2V.4zM80.4.4h4.2a7 7 0 014.6 1.3c1 .9 1.5 2.3 1.5 4.2 0 2.7-.8 4.3-2.6 4.9l3 10.4h-2.8l-2.7-9.8h-2.3v9.8h-3V.4zm4 9c1 0 1.9-.3 2.7-.8a3.5 3.5 0 00.8-2.7c0-.7-.1-1.4-.3-2a1.9 1.9 0 00-1-1c-.7-.3-1.4-.5-2-.4h-1.4v6.9h1.2zM94.7 19.7a9.1 9.1 0 01-1.3-5.3v-7c0-1.3.1-2.7.5-4 .3-1 1-1.8 1.7-2.3A6 6 0 0199 .2a5.3 5.3 0 014.2 1.5c1 1.3 1.4 3 1.3 4.6V7h-2.8v-.7c0-.8 0-1.5-.2-2.3 0-.5-.3-1-.7-1.2a3 3 0 00-1.7-.4c-.7 0-1.3.1-1.9.5-.4.4-.6 1-.7 1.5L96.3 7v7.7c0 1.2.1 2.4.6 3.4a2.8 2.8 0 003.5.8c.4-.2.7-.5 1-.9a8 8 0 00.6-3.6V13h-2.7v-2.1h5.3v10.3h-1.8l-.3-2.4a3.7 3.7 0 01-3.7 2.7 4.7 4.7 0 01-4.1-1.8zM110.7 13.9L106.2.4h2.7l3.2 10 3.2-10h2.7l-4.5 13.5v7.3h-2.8v-7.3z" fill="#444"/></svg>