<svg width="60" height="60" viewBox="0 0 60 60" fill="none" xmlns="http://www.w3.org/2000/svg">
<rect width="60" height="60" fill="#68B738"/>
<path fill-rule="evenodd" clip-rule="evenodd" d="M19.5 15C20.0523 15 20.5 15.4477 20.5 16V21.5C20.5 22.0569 20.692 22.8152 21.2009 23.4166C21.5598 23.8407 22.1181 24.2374 23 24.4097V16C23 15.4477 23.4477 15 24 15C24.5523 15 25 15.4477 25 16V24.4097C25.8819 24.2373 26.4402 23.8407 26.7991 23.4166C27.308 22.8152 27.5 22.0569 27.5 21.5V16C27.5 15.4477 27.9477 15 28.5 15C29.0523 15 29.5 15.4477 29.5 16V21.5C29.5 22.4431 29.192 23.6848 28.3259 24.7084C27.5863 25.5825 26.4925 26.2344 25 26.4352V44C25 44.5523 24.5523 45 24 45C23.4477 45 23 44.5523 23 44V26.4353C21.5074 26.2344 20.4137 25.5825 19.6741 24.7084C18.808 23.6848 18.5 22.4431 18.5 21.5V16C18.5 15.4477 18.9477 15 19.5 15ZM37.7071 15.2929C37.4211 15.0069 36.991 14.9214 36.6173 15.0761C36.2436 15.2309 36 15.5956 36 16V44C36 44.5523 36.4477 45 37 45C37.5523 45 38 44.5523 38 44V35H41.5C42.0523 35 42.5 34.5523 42.5 34C42.5 28.5081 41.7373 24.2804 40.7659 21.2108C39.8038 18.1706 38.6156 16.2014 37.7071 15.2929ZM40.4911 33H38V19.519C38.2885 20.1715 38.5807 20.9346 38.8591 21.8142C39.7051 24.4875 40.4053 28.1836 40.4911 33Z" fill="white"/>
</svg>
