<svg width="20" height="21" viewBox="0 0 20 21" fill="none" xmlns="http://www.w3.org/2000/svg">
<path fill-rule="evenodd" clip-rule="evenodd" d="M8.37362 14.2V20.4C8.37505 20.475 8.36034 20.5494 8.33056 20.6176C8.30074 20.6859 8.25665 20.7462 8.20147 20.7942C8.14629 20.8423 8.0815 20.8767 8.01186 20.895C7.94222 20.9133 7.86953 20.915 7.79916 20.9H3.3951C3.01339 20.9024 2.63534 20.8224 2.28469 20.6648C1.93404 20.5072 1.6184 20.2756 1.35763 19.9844C1.09686 19.6932 0.896599 19.3489 0.769402 18.9729C0.642235 18.597 0.590904 18.1977 0.618645 17.8V3.90001C0.631004 3.50598 0.717613 3.11835 0.873497 2.7593C1.02938 2.40025 1.25149 2.07681 1.52715 1.80748C1.80279 1.53815 2.12655 1.3282 2.47991 1.18965C2.83331 1.0511 3.20937 0.986659 3.5866 1.00001H7.79916C7.95388 1.02326 8.09905 1.09204 8.21774 1.19828C8.33642 1.30453 8.4237 1.44387 8.46935 1.60001V7.90001C8.45831 8.05531 8.39422 8.2013 8.28881 8.31142C8.18337 8.42154 8.0436 8.48846 7.89492 8.50001H3.68233C3.68728 8.18336 3.8099 7.88112 4.02428 7.65718C4.2387 7.43324 4.52807 7.30516 4.83123 7.30001H7.12899V2.30001H3.3951C2.95238 2.31824 2.53408 2.51686 2.22988 2.85331C1.92565 3.18977 1.75967 3.6373 1.76754 4.10001V18.1C1.7785 18.337 1.83447 18.5693 1.93215 18.7834C2.02984 18.9976 2.16729 19.1893 2.33657 19.3475C2.50582 19.5057 2.70348 19.6271 2.91808 19.7048C3.13268 19.7825 3.35992 19.8149 3.5866 19.8H7.12899V14.8H4.73547C4.4323 14.7949 4.14294 14.6668 3.92855 14.4428C3.71416 14.2189 3.59151 13.9167 3.5866 13.6H7.79916C7.94787 13.6116 8.08764 13.6785 8.19305 13.7886C8.29848 13.8987 8.36254 14.0447 8.37362 14.2ZM9.61825 10.4H17.7562L15.7456 8.40001L16.6073 7.50001L19.5752 10.6C19.6684 10.7298 19.7188 10.8877 19.7188 11.05C19.7188 11.2123 19.6684 11.3702 19.5752 11.5L16.6073 14.6L15.7456 13.7L17.7562 11.6H9.61825V10.4Z"/>
</svg>
