<svg width="60" height="60" viewBox="0 0 60 60" fill="none" xmlns="http://www.w3.org/2000/svg">
<rect width="60" height="60" fill="#68B738"/>
<path fill-rule="evenodd" clip-rule="evenodd" d="M26.6068 12.9899C24.8464 12.9899 23.4195 14.5147 23.4195 16.397C23.4195 18.2792 24.846 19.8036 26.6068 19.8036C28.3676 19.8036 29.7941 18.2797 29.7941 16.397C29.7936 14.5142 28.3672 12.9899 26.6068 12.9899ZM26.6063 18.4657C25.5374 18.4657 24.6711 17.5396 24.6711 16.3965C24.6711 15.2538 25.5374 14.3272 26.6063 14.3272C27.6757 14.3272 28.5421 15.2538 28.5421 16.3965C28.5421 17.5396 27.6757 18.4657 26.6063 18.4657ZM35.7762 31.4731C34.0702 31.4731 32.6877 32.9514 32.6877 34.7741C32.6877 36.5983 34.0707 38.0761 35.7762 38.0761C37.4818 38.0761 38.8643 36.5978 38.8643 34.7741C38.8643 32.9509 37.4813 31.4731 35.7762 31.4731ZM35.7762 36.4864C34.8922 36.4864 34.1753 35.7201 34.1753 34.7751C34.1753 33.8291 34.8922 33.0633 35.7762 33.0633C36.6603 33.0633 37.3776 33.8291 37.3776 34.7751C37.3776 35.7201 36.6603 36.4864 35.7762 36.4864ZM20.8856 33.1132C20.8856 31.7303 21.9333 30.6104 23.2269 30.6104C24.5206 30.6104 25.5682 31.7308 25.5682 33.1132C25.5682 34.4956 24.5206 35.616 23.2269 35.616C21.9333 35.616 20.8856 34.4956 20.8856 33.1132ZM23.9665 32.9645C23.9774 32.9631 23.9875 32.9634 23.9965 32.9656C23.9869 32.9649 23.9769 32.9645 23.9665 32.9645ZM33.5002 22.7626C33.5002 22.7626 36.5402 21.9242 39.6781 24.2564C39.7612 24.326 39.8439 24.3941 39.925 24.4609C40.7301 25.1238 41.3873 25.6648 40.8304 26.379L40.8191 26.3902C40.4804 26.7262 40.1815 27.0228 39.1144 25.8549C38.0604 25.0949 36.3948 23.9566 33.5002 24.4134C32.3724 24.6497 31.5386 24.9641 29.9445 26.5625C28.3509 28.161 25.9724 29.2876 23.4472 29.0517C20.9219 28.8163 19.5983 27.7938 18.2009 26.5097C17.9068 26.0903 17.9068 25.6446 18.0781 25.3826C18.2494 25.1206 18.9114 24.8585 19.2793 25.2513C19.6473 25.6446 21.3877 27.2169 23.1037 27.3216L23.1048 27.3216C24.8208 27.4262 26.537 27.5308 28.8407 25.356C31.0302 23.2919 32.1796 23.0457 33.3184 22.8018C33.3789 22.7888 33.4395 22.7759 33.5002 22.7626ZM43.6457 21.1574V39.8155C43.6457 39.8155 43.7037 41.3127 42.7743 42.4515C41.844 43.5902 40.7167 44.0044 39.8584 44.0068C39.0002 44.0092 19.2766 44.0092 19.2766 44.0092C19.2766 44.0092 17.9956 44.0916 16.9018 43.1529C15.8075 42.2136 15.3539 41.1529 15.3539 39.816V21.279C15.3566 21.0905 15.406 20.5025 15.942 20.5025H16.2493C16.2493 20.5025 16.9235 20.4764 16.9235 21.3148V39.4484C16.9235 39.4484 16.813 40.4965 17.3766 41.2958C17.9408 42.095 18.6028 42.2393 18.9825 42.3047C19.4606 42.3314 39.6378 42.3314 39.6378 42.3314C39.6378 42.3314 40.447 42.4234 41.2554 41.7283C42.0031 41.0076 42.0643 40.1691 42.0765 39.8412C42.0861 39.5875 42.0812 28.0973 42.079 22.9515C42.0787 22.2806 42.0785 21.7175 42.0783 21.3012V21.2407C42.0797 21.0586 42.1227 20.502 42.6162 20.502H43.1218C43.2718 20.5074 43.6457 20.579 43.6457 21.1574Z" fill="white"/>
</svg>
