<svg fill="none" xmlns="http://www.w3.org/2000/svg">

  <symbol id="arrow" width="32" height="12">
    <line y1="6" x2="26" y2="6" stroke="black" stroke-width="2"/>
    <path d="M32 6L25.25 11.1962L25.25 0.803848L32 6Z" fill="black"/>
  </symbol>

  <symbol id="vkontakte"  viewBox="0 0 29 18">
    <path d="M0.0914307 2.48988C0.0914307 1.63485 0.643326 1.17381 1.74712 1.10674L6.00052 1.13189C6.28599 1.13189 6.47629 1.25763 6.57145 1.50911C7.00916 2.76651 7.4992 3.85206 8.04158 4.76577C8.58397 5.67948 9.29287 6.7315 10.1683 7.92183C10.2444 8.07272 10.3681 8.14816 10.5394 8.14816C10.6726 8.14816 10.7773 8.08949 10.8534 7.97213L10.939 7.6955L10.9676 3.34491C10.9676 3.04313 10.8867 2.84195 10.7249 2.74136C10.5632 2.64077 10.2634 2.56532 9.82573 2.51503C9.48318 2.46473 9.3119 2.28031 9.3119 1.96177C9.3119 1.89471 9.32141 1.84442 9.34044 1.81089C9.74009 0.721143 10.8819 0.176271 12.766 0.176271L14.3646 0.151123C15.0878 0.151123 15.6872 0.310393 16.163 0.628934C16.6388 0.947474 16.8767 1.45043 16.8767 2.13781V7.84639C17.0099 7.93022 17.1336 7.97213 17.2478 7.97213C17.5332 7.97213 17.7806 7.82124 17.99 7.51947C20.0834 4.93761 21.2157 3.21079 21.387 2.33899C21.387 2.32223 21.406 2.28031 21.4441 2.21325C21.5773 1.96177 21.7962 1.74383 22.1007 1.55941C22.4051 1.37499 22.6716 1.24925 22.9 1.18219C22.9761 1.14866 23.0617 1.13189 23.1569 1.13189H27.5816L27.867 1.15704C28.2476 1.15704 28.5426 1.31631 28.752 1.63485C28.8281 1.73544 28.8804 1.84442 28.909 1.96177C28.9375 2.07913 28.9565 2.19649 28.966 2.31384C28.9756 2.4312 28.9803 2.49826 28.9803 2.51503V2.69106C28.8471 3.37844 28.5093 4.11192 27.9669 4.89151C27.4245 5.67109 26.7347 6.51355 25.8973 7.41887C25.06 8.3242 24.5366 8.91937 24.3273 9.20438C24.156 9.40556 24.0704 9.58998 24.0704 9.75763C24.0704 9.89175 24.1465 10.0426 24.2987 10.2103L28.4665 14.8375C28.6949 15.1058 28.809 15.3992 28.809 15.7177C28.809 16.1033 28.6378 16.4218 28.2952 16.6733C27.9527 16.9248 27.5435 17.0673 27.0677 17.1008L26.5824 17.126H22.2434C22.2244 17.126 22.1863 17.1302 22.1292 17.1385C22.0721 17.1469 22.034 17.1511 22.015 17.1511C21.5963 17.1511 21.2062 16.9919 20.8446 16.6733C20.7114 16.5392 19.8169 15.55 18.1613 13.7059C18.0661 13.5885 17.9329 13.4795 17.7616 13.3789C17.6855 13.6472 17.5856 14.0328 17.4619 14.5357C17.3382 15.0387 17.2478 15.3992 17.1907 15.6171L17.105 16.0446C16.9147 16.6314 16.5151 16.9835 15.9061 17.1008L15.5065 17.126H12.7089C11.1293 17.126 9.55454 16.4889 7.98449 15.2147C6.41444 13.9406 5.0014 12.2934 3.74536 10.2732C2.48932 8.25295 1.31892 5.90162 0.234162 3.21917C0.139008 3.00122 0.0914307 2.75813 0.0914307 2.48988ZM17.2478 9.00319C16.8481 9.00319 16.4865 8.90679 16.163 8.71399C15.8395 8.52119 15.6777 8.25714 15.6777 7.92183V2.13781C15.6777 1.8025 15.5826 1.5636 15.3923 1.42109C15.202 1.27859 14.8689 1.20734 14.3931 1.20734L12.766 1.25763C11.9477 1.25763 11.3292 1.38337 10.9105 1.63485C11.7479 1.98692 12.1665 2.55694 12.1665 3.34491V7.77095C12.1285 8.19008 11.9382 8.53796 11.5956 8.81458C11.253 9.09121 10.8724 9.22953 10.4538 9.22953C9.88282 9.22953 9.44511 8.98643 9.14062 8.50024C7.65621 6.52193 6.55242 4.64422 5.82924 2.8671L5.57233 2.21325L1.77566 2.18811C1.52826 2.18811 1.39029 2.20068 1.36174 2.22583C1.3332 2.25098 1.31892 2.32223 1.31892 2.43958C1.31892 2.59047 1.33795 2.74974 1.37602 2.9174L1.97549 4.32568C3.57408 7.96375 5.31065 10.8306 7.18519 12.9263C9.05974 15.0219 10.901 16.0698 12.7089 16.0698H15.5635C15.6777 16.0698 15.7634 16.0404 15.8205 15.9817C15.8776 15.9231 15.9251 15.8099 15.9632 15.6422L16.0203 15.3908L16.5627 13.1778C16.7149 12.876 16.8481 12.6748 16.9623 12.5742C17.1717 12.3898 17.4191 12.2976 17.7045 12.2976C18.1613 12.2976 18.6275 12.5407 19.1033 13.0269L21.5297 15.7428C21.682 15.9608 21.8437 16.0698 22.015 16.0698H26.7252C27.2961 16.0698 27.5816 15.944 27.5816 15.6925C27.5816 15.6087 27.553 15.5249 27.4959 15.4411L23.3567 10.8893C23.0332 10.5372 22.8714 10.16 22.8714 9.75763C22.8714 9.35527 23.0237 8.96966 23.3281 8.60083C23.5755 8.26552 24.0561 7.70808 24.7697 6.92849C25.4834 6.1489 26.1067 5.41961 26.6395 4.74062C27.1724 4.06163 27.5245 3.4455 27.6957 2.89225L27.7814 2.56532C27.7623 2.53179 27.7528 2.47731 27.7528 2.40186C27.7528 2.32642 27.7433 2.26355 27.7243 2.21325H23.2425C22.957 2.31384 22.7287 2.46473 22.5574 2.66592L22.3861 3.14373C21.9103 4.30053 20.6638 6.08603 18.6465 8.50024C18.2469 8.83554 17.7806 9.00319 17.2478 9.00319Z"/>
  </symbol>

  <symbol id="facebook" viewBox="0 0 15 29">
    <path fill-rule="evenodd" clip-rule="evenodd" d="M5.95934 2.36453C7.14824 0.990575 8.77928 0.199951 10.5 0.199951H14C14.3038 0.199951 14.55 0.446195 14.55 0.749951V6.14297C14.55 6.44672 14.3038 6.69297 14 6.69297H10.5C10.3643 6.69297 10.2148 6.75463 10.091 6.89775C9.96497 7.04337 9.88337 7.25588 9.88337 7.49122V10.986H14C14.1663 10.986 14.3237 11.0612 14.4281 11.1906C14.5325 11.32 14.5728 11.4897 14.5376 11.6523L13.3709 17.0453C13.3162 17.2984 13.0923 17.479 12.8334 17.479H9.88337V27.715C9.88337 28.0188 9.63712 28.265 9.33337 28.265H4.6667C4.36294 28.265 4.1167 28.0188 4.1167 27.715V17.479H1.1667C0.862943 17.479 0.616699 17.2328 0.616699 16.929V11.536C0.616699 11.2322 0.862943 10.986 1.1667 10.986H4.1167V7.49122C4.1167 5.58109 4.77259 3.73599 5.95934 2.36453ZM10.5 1.29995C9.1266 1.29995 7.79017 1.92981 6.79115 3.08431C5.78997 4.24132 5.2167 5.82556 5.2167 7.49122V11.536C5.2167 11.8397 4.97046 12.086 4.6667 12.086H1.7167V16.379H4.6667C4.97046 16.379 5.2167 16.6252 5.2167 16.929V27.165H8.78337V16.929C8.78337 16.6252 9.02961 16.379 9.33337 16.379H12.3896L13.3183 12.086H9.33337C9.02961 12.086 8.78337 11.8397 8.78337 11.536V7.49122C8.78337 7.01141 8.94759 6.53804 9.25917 6.17797C9.57291 5.8154 10.017 5.59297 10.5 5.59297H13.45V1.29995H10.5Z"/>
  </symbol>

  <symbol id="instagram" viewBox="0 0 23 23">
    <path d="M11.4775 0.0898438C13.3942 0.0898438 14.959 0.112305 16.1719 0.157227C17.2051 0.202148 18.126 0.381836 18.9346 0.696289C19.7132 0.995768 20.387 1.43001 20.9561 1.99902C21.5251 2.56803 21.9593 3.24186 22.2588 4.02051C22.5732 4.8291 22.7529 5.75 22.7979 6.7832C22.8428 7.99609 22.8652 9.56087 22.8652 11.4775C22.8652 13.3942 22.8428 14.959 22.7979 16.1719C22.7529 17.2051 22.5732 18.126 22.2588 18.9346C21.9593 19.7132 21.5251 20.387 20.9561 20.9561C20.387 21.5251 19.7132 21.9593 18.9346 22.2588C18.126 22.5732 17.2051 22.7529 16.1719 22.7978C14.959 22.8428 13.3942 22.8652 11.4775 22.8652C9.56087 22.8652 7.99609 22.8428 6.7832 22.7978C5.75 22.7529 4.8291 22.5732 4.02051 22.2588C3.24186 21.9593 2.56803 21.5251 1.99902 20.9561C1.43001 20.387 0.995768 19.7132 0.696289 18.9346C0.381836 18.126 0.202148 17.2051 0.157227 16.1719C0.112305 14.959 0.0898438 13.3942 0.0898438 11.4775C0.0898438 9.56087 0.112305 7.99609 0.157227 6.7832C0.202148 5.75 0.381836 4.8291 0.696289 4.02051C0.995768 3.24186 1.43001 2.56803 1.99902 1.99902C2.56803 1.43001 3.24186 0.995768 4.02051 0.696289C4.8291 0.381836 5.75 0.202148 6.7832 0.157227C7.99609 0.112305 9.56087 0.0898438 11.4775 0.0898438ZM11.4775 1.57227C9.486 1.57227 7.86133 1.59473 6.60352 1.63965C5.79492 1.6696 5.04622 1.81185 4.35742 2.06641C3.2793 2.51562 2.51562 3.2793 2.06641 4.35742C1.81185 5.04622 1.6696 5.79492 1.63965 6.60352C1.59473 7.86133 1.57227 9.486 1.57227 11.4775C1.57227 13.4691 1.59473 15.0937 1.63965 16.3516C1.6696 17.1602 1.81185 17.9089 2.06641 18.5977C2.51562 19.6758 3.2793 20.4395 4.35742 20.8887C5.04622 21.1432 5.79492 21.2855 6.60352 21.3154C7.86133 21.3603 9.486 21.3828 11.4775 21.3828C13.4691 21.3828 15.0938 21.3603 16.3516 21.3154C17.1602 21.2855 17.9089 21.1432 18.5977 20.8887C19.6758 20.4395 20.4395 19.6758 20.8887 18.5977C21.1432 17.9089 21.2855 17.1602 21.3154 16.3516C21.3604 15.0937 21.3828 13.4691 21.3828 11.4775C21.3828 9.486 21.3604 7.86133 21.3154 6.60352C21.2855 5.79492 21.1432 5.04622 20.8887 4.35742C20.4395 3.2793 19.6758 2.51562 18.5977 2.06641C17.9089 1.81185 17.1602 1.6696 16.3516 1.63965C15.0938 1.59473 13.4691 1.57227 11.4775 1.57227ZM11.4775 16.0371C12.7354 16.0371 13.8097 15.5916 14.7007 14.7007C15.5916 13.8097 16.0371 12.7354 16.0371 11.4775C16.0371 10.2197 15.5916 9.14534 14.7007 8.25439C13.8097 7.36344 12.7354 6.91797 11.4775 6.91797C10.2197 6.91797 9.14534 7.36344 8.25439 8.25439C7.36344 9.14534 6.91797 10.2197 6.91797 11.4775C6.91797 12.7354 7.36344 13.8097 8.25439 14.7007C9.14534 15.5916 10.2197 16.0371 11.4775 16.0371ZM11.4775 5.63769C13.0947 5.63769 14.4723 6.20671 15.6104 7.34473C16.7484 8.48275 17.3174 9.86035 17.3174 11.4775C17.3174 13.0947 16.7484 14.4723 15.6104 15.6104C14.4723 16.7484 13.0947 17.3174 11.4775 17.3174C9.86035 17.3174 8.48275 16.7484 7.34473 15.6104C6.20671 14.4723 5.6377 13.0947 5.6377 11.4775C5.6377 9.86035 6.20671 8.48275 7.34473 7.34473C8.48275 6.20671 9.86035 5.63769 11.4775 5.63769ZM18.9346 5.41309C18.9346 5.78743 18.7998 6.10563 18.5303 6.36768C18.2607 6.62972 17.9313 6.76074 17.542 6.76074C17.1676 6.76074 16.8494 6.62972 16.5874 6.36768C16.3254 6.10563 16.1943 5.78743 16.1943 5.41309C16.1943 5.02376 16.3254 4.69434 16.5874 4.4248C16.8494 4.15527 17.1676 4.02051 17.542 4.02051C17.9163 4.02051 18.242 4.15902 18.519 4.43603C18.7961 4.71305 18.9346 5.03874 18.9346 5.41309Z"/>

  </symbol>

<symbol id="htmlacademy" viewbox="0 0 27 34">
  <path d="M13.64.02L13.5 0 0 1.4v24.61L13.5 34 27 26.01V1.41L13.64 0zm11.6 25L13.5 31.96 1.77 25.02v-10.1l11.68 6.93.02 1.25-8.02-4.75v1.23l8.04 4.8.02 1.3-8.05-4.76v1.22l8.04 4.81 8.12-4.83V16.9l3.62-2.15v10.26zm0-11.57L22 15.33l-1.48.88-7.06-4.19-.01 1.23 6.04 3.57-.06.03-.13.07-.86.5-4.98-2.95-.01 1.22 3.93 2.33-.93.61-.02.01-2.97-1.74-.01 1.23 1.94 1.13-1.98 1.19L1.8 13.58l11.63-6.96 11.8 6.83zm0-1.22L13.43 5.3 1.77 12.22V2.99L13.5 1.76 25.23 3v9.24z"/>
</symbol>

<symbol id="plus" viewbox="0 0 30 30">
  <line x1="15" x2="15" y2="30" stroke="#D3D3D3"/>
  <line x1="30" y1="15" y2="15" stroke="#D3D3D3"/>
</symbol>

<symbol id="phone" viewbox="0 0 20 21">
  <g clip-path="url(#clip0)">
    <path d="M17.9 9.7528H9.4v1.2041h8.5l-2.1 2.1072.9.9031 3.1-3.1107a.7539.7539 0 00.15-.4515.754.754 0 00-.15-.4516l-3.1-3.1106-.9.903 2.1 2.007zM8.1 19.7872v-6.2213a.6533.6533 0 00-.1886-.4129.649.649 0 00-.4114-.1892H3.1c.0052.3177.1332.621.3572.8457s.5262.3532.8428.3584h2.5v5.0172H3.1a1.7835 1.7835 0 01-.6982-.0955 1.7882 1.7882 0 01-.6074-.3585 1.7967 1.7967 0 01-.4224-.5661 1.8011 1.8011 0 01-.172-.6857V3.4311a1.7795 1.7795 0 01.483-1.251A1.7674 1.7674 0 012.9 1.625h3.9v5.0172H4.4a1.218 1.218 0 00-.8428.3584c-.224.2247-.352.528-.3572.8458h4.4a.649.649 0 00.4114-.1893.6532.6532 0 00.1886-.4128V.9225a.8632.8632 0 00-.2628-.403A.8586.8586 0 007.5.3204H3.1a2.9907 2.9907 0 00-1.1559.1902 2.9985 2.9985 0 00-.9952.62 3.01 3.01 0 00-.6827.955A3.019 3.019 0 000 3.2305v13.9478c-.029.3991.0247.7998.1575 1.177.1328.3772.342.7228.6144 1.0149.2724.2922.602.5246.9683.6828a2.8824 2.8824 0 001.1598.236h4.6a.499.499 0 00.555-.2834.503.503 0 00.045-.2183z"/>
  </g>
  <defs>
    <clipPath id="clip0">
      <path transform="translate(0 .3204)" d="M0 0h20v20.0688H0z"/>
    </clipPath>
  </defs>
</symbol>

<symbol id="email" viewbox="0 0 19 14">
  <path fill-rule="evenodd" clip-rule="evenodd" d="M18 .5477V3.5l-9 7-9-7V.5477h18zm-18 5.3h1.3V12.7H17V5.8477h1.3v8H18V14H0V5.8477zm16.7-2.9835L9 8.8531 1.3 2.8642V2.3h15.4v.5642z"/>
</symbol>

</svg>
