<svg fill="none" xmlns="http://www.w3.org/2000/svg">

  <symbol id="clock" viewbox="0 0 60 60">
    <path fill-rule="evenodd" clip-rule="evenodd" d="M42 30.6145C42 23.9012 36.9148 18.4128 30.5 18.0222V16.5H36.75C37.1642 16.5 37.5 16.1642 37.5 15.75C37.5 15.3358 37.1642 15 36.75 15H22.75C22.3358 15 22 15.3358 22 15.75C22 16.1642 22.3358 16.5 22.75 16.5H29V18.0244C22.602 18.4331 17.5356 23.9136 17.5356 30.6145C17.5356 34.4288 19.1773 37.8477 21.7717 40.1608C22.2244 40.5644 22.2849 41.2708 21.8617 41.7054L20.4276 43.1781C20.1698 43.4427 20.1698 43.8645 20.4276 44.1291C20.6951 44.4039 21.1366 44.4039 21.4042 44.1292L23.2838 42.199C23.6025 41.8718 24.1004 41.8061 24.5102 42.0076C26.103 42.7907 27.8858 43.229 29.7678 43.229C31.609 43.229 33.3553 42.8095 34.9215 42.0581C35.3298 41.8622 35.8226 41.9298 36.1385 42.2542L37.9644 44.1292C38.2319 44.4039 38.6734 44.4039 38.941 44.1292C39.1987 43.8645 39.1987 43.4427 38.941 43.1781L37.5843 41.7849C37.1584 41.3475 37.2228 40.6356 37.682 40.2333C40.3238 37.9195 42 34.4688 42 30.6145ZM40.6409 30.6145C40.6409 36.8072 35.7728 41.8274 29.7678 41.8274C23.7628 41.8274 18.8948 36.8072 18.8948 30.6145C18.8948 24.4218 23.7628 19.4016 29.7678 19.4016C35.7728 19.4016 40.6409 24.4218 40.6409 30.6145ZM29.0083 31.1663C29.0083 31.5857 29.3483 31.9257 29.7677 31.9257C30.2113 31.9257 30.5708 31.5661 30.5708 31.1226V22.9409C30.5708 22.5094 30.221 22.1596 29.7895 22.1596C29.3581 22.1596 29.0083 22.5094 29.0083 22.9409V31.1663ZM24.3311 25.415C24.9316 25.415 25.4184 24.9292 25.4184 24.3299C25.4184 23.7306 24.9316 23.2448 24.3311 23.2448C23.7306 23.2448 23.2438 23.7306 23.2438 24.3299C23.2438 24.9292 23.7306 25.415 24.3311 25.415ZM35.2042 25.415C35.8047 25.415 36.2915 24.9292 36.2915 24.3299C36.2915 23.7306 35.8047 23.2448 35.2042 23.2448C34.6037 23.2448 34.1169 23.7306 34.1169 24.3299C34.1169 24.9292 34.6037 25.415 35.2042 25.415ZM25.4184 37.3513C25.4184 37.9506 24.9316 38.4364 24.3311 38.4364C23.7306 38.4364 23.2438 37.9506 23.2438 37.3513C23.2438 36.752 23.7306 36.2661 24.3311 36.2661C24.9316 36.2661 25.4184 36.752 25.4184 37.3513ZM29.7677 40.6066C30.3682 40.6066 30.855 40.1208 30.855 39.5215C30.855 38.9222 30.3682 38.4364 29.7677 38.4364C29.1672 38.4364 28.6804 38.9222 28.6804 39.5215C28.6804 40.1208 29.1672 40.6066 29.7677 40.6066ZM22.1565 30.7749C22.1565 31.3742 21.6697 31.86 21.0692 31.86C20.4687 31.86 19.9819 31.3742 19.9819 30.7749C19.9819 30.1756 20.4687 29.6897 21.0692 29.6897C21.6697 29.6897 22.1565 30.1756 22.1565 30.7749ZM38.4661 31.86C39.0666 31.86 39.5534 31.3742 39.5534 30.7749C39.5534 30.1756 39.0666 29.6897 38.4661 29.6897C37.8656 29.6897 37.3788 30.1756 37.3788 30.7749C37.3788 31.3742 37.8656 31.86 38.4661 31.86ZM36.2915 37.3513C36.2915 37.9506 35.8047 38.4364 35.2042 38.4364C34.6037 38.4364 34.1169 37.9506 34.1169 37.3513C34.1169 36.752 34.6037 36.2661 35.2042 36.2661C35.8047 36.2661 36.2915 36.752 36.2915 37.3513Z" fill="white"/>
  </symbol>

  <symbol id="leaf" viewbox="0 0 60 60">
    <g clip-path="url(#clip0)">
      <path d="M42.84 16.77a.95.95 0 00-.9-.77h-.01c-4.94.03-16.95.92-21.8 8.38-2.51 3.88-2.73 8.91-.64 14.96l.07.13a25.93 25.93 0 00-1.04 3.32c-.11.54.21 1.07.72 1.19l.2.02c.43 0 .81-.32.9-.79.03-.1 2.42-10.37 10.86-16.38.43-.3.55-.92.26-1.38a.9.9 0 00-1.3-.28c-4.79 3.4-7.74 8-9.47 11.65-1.24-4.57-.92-8.37.99-11.3 3.74-5.77 12.62-7.16 17.98-7.45-1.15 1.8-2.41 5.1-2.41 10.93 0 3.12-.83 5.52-2.47 7.14-2.62 2.6-6.88 2.83-10 2.58-.51-.04-.96.38-1 .93-.04.55.35 1.03.86 1.07.63.05 1.3.08 1.98.08 3.18 0 6.87-.66 9.43-3.2 2.04-2 3.07-4.9 3.07-8.6 0-9.1 3.22-11.1 3.23-11.1.4-.21.6-.68.5-1.13z" fill="#fff"/>
    </g>
    <defs>
      <clipPath id="clip0">
        <path fill="#fff" transform="translate(15 14)" d="M0 0h30v32H0z"/>
      </clipPath>
    </defs>
  </symbol>

  <symbol id="meal" viewbox="0 0 60 60">
    <path fill-rule="evenodd" clip-rule="evenodd" d="M36.62 15.08a1 1 0 011.09.21c.9.91 2.1 2.88 3.06 5.92A42.6 42.6 0 0142.5 34a1 1 0 01-1 1H38v9a1 1 0 11-2 0V16a1 1 0 01.62-.92zM38 33h2.5a39.62 39.62 0 00-1.64-11.19 22.4 22.4 0 00-.86-2.3V33zM24 15a1 1 0 011 1v28a1 1 0 11-2 0V16a1 1 0 011-1z" fill="#fff"/>
    <path fill-rule="evenodd" clip-rule="evenodd" d="M19.5 15a1 1 0 011 1v5.5c0 .56.2 1.32.7 1.92.48.56 1.31 1.08 2.8 1.08a1 1 0 110 2 5.41 5.41 0 01-4.33-1.8 5.07 5.07 0 01-1.17-3.2V16a1 1 0 011-1z" fill="#fff"/>
    <path fill-rule="evenodd" clip-rule="evenodd" d="M28.5 15a1 1 0 00-1 1v5.5c0 .56-.2 1.32-.7 1.92-.48.56-1.31 1.08-2.8 1.08a1 1 0 000 2c2.01 0 3.43-.73 4.33-1.8a5.07 5.07 0 001.17-3.2V16a1 1 0 00-1-1z" fill="#fff"/>
  </symbol>

  <symbol id="powder" viewbox="0 0 60 60">
    <g clip-path="url(#clip0)">
      <path fill-rule="evenodd" clip-rule="evenodd" d="M26.6068 13.9899C24.8464 13.9899 23.4195 15.5147 23.4195 17.397C23.4195 19.2792 24.846 20.8036 26.6068 20.8036C28.3676 20.8036 29.7941 19.2797 29.7941 17.397C29.7936 15.5142 28.3672 13.9899 26.6068 13.9899ZM26.6063 19.4657C25.5374 19.4657 24.671 18.5396 24.671 17.3965C24.671 16.2538 25.5374 15.3272 26.6063 15.3272C27.6757 15.3272 28.5421 16.2538 28.5421 17.3965C28.5421 18.5396 27.6757 19.4657 26.6063 19.4657ZM35.7762 32.473C34.0702 32.473 32.6877 33.9513 32.6877 35.774C32.6877 37.5982 34.0707 39.076 35.7762 39.076C37.4818 39.076 38.8643 37.5977 38.8643 35.774C38.8643 33.9508 37.4813 32.473 35.7762 32.473ZM35.7762 37.4863C34.8922 37.4863 34.1753 36.72 34.1753 35.775C34.1753 34.829 34.8922 34.0632 35.7762 34.0632C36.6603 34.0632 37.3776 34.829 37.3776 35.775C37.3776 36.72 36.6603 37.4863 35.7762 37.4863ZM20.8856 34.1131C20.8856 32.7302 21.9333 31.6104 23.2269 31.6104C24.5206 31.6104 25.5682 32.7307 25.5682 34.1131C25.5682 35.4955 24.5206 36.6159 23.2269 36.6159C21.9333 36.6159 20.8856 35.4955 20.8856 34.1131ZM23.9665 33.9644C23.9774 33.963 23.9875 33.9633 23.9965 33.9655L23.986 33.9649C23.9797 33.9646 23.9732 33.9644 23.9665 33.9644ZM33.5002 23.7625C33.5002 23.7625 36.5402 22.9241 39.6781 25.2563C39.7612 25.326 39.8439 25.394 39.925 25.4609C40.7301 26.1237 41.3873 26.6647 40.8304 27.3789L40.8191 27.3901C40.4804 27.7261 40.1815 28.0227 39.1144 26.8548C38.0604 26.0948 36.3947 24.9565 33.5002 25.4133C32.3724 25.6497 31.5386 25.964 29.9445 27.5625C28.3509 29.1609 25.9724 30.2875 23.4472 30.0517C20.9219 29.8162 19.5983 28.7937 18.2009 27.5097C17.9068 27.0902 17.9068 26.6446 18.0781 26.3825C18.2494 26.1205 18.9114 25.8584 19.2793 26.2512C19.6472 26.6446 21.3877 28.2168 23.1037 28.3215L23.1048 28.3215C24.8208 28.4261 26.537 28.5307 28.8407 26.3559C31.0302 24.2918 32.1796 24.0456 33.3183 23.8017C33.3789 23.7887 33.4395 23.7758 33.5002 23.7625ZM43.6457 22.1573V40.8154C43.6457 40.8154 43.7037 42.3126 42.7743 43.4514C41.844 44.5902 40.7167 45.0043 39.8584 45.0067C39.0002 45.0092 19.2766 45.0092 19.2766 45.0092C19.2766 45.0092 17.9956 45.0915 16.9018 44.1528C15.8075 43.2136 15.3539 42.1528 15.3539 40.8159V22.2789C15.3566 22.0905 15.406 21.5024 15.942 21.5024H16.2493C16.2493 21.5024 16.9235 21.4763 16.9235 22.3147V40.4483C16.9235 40.4483 16.8129 41.4965 17.3766 42.2957C17.9408 43.0949 18.6028 43.2393 18.9825 43.3046C19.4606 43.3313 39.6378 43.3313 39.6378 43.3313C39.6378 43.3313 40.447 43.4233 41.2554 42.7282C42.0031 42.0075 42.0642 41.169 42.0765 40.8411C42.0861 40.5875 42.0812 29.0986 42.079 23.9524C42.0787 23.281 42.0784 22.7176 42.0783 22.3012V22.2406C42.0797 22.0585 42.1227 21.502 42.6162 21.502H43.1218C43.2718 21.5073 43.6457 21.579 43.6457 22.1573Z" fill="white"/>
    </g>
    <defs>
      <clipPath id="clip0">
        <rect width="29" height="31" fill="white" transform="translate(15 14)"/>
      </clipPath>
    </defs>
  </symbol>

  <symbol id="arrow" width="32" height="12">
    <line y1="6" x2="26" y2="6" stroke="black" stroke-width="2"/>
    <path d="M32 6L25.25 11.1962L25.25 0.803848L32 6Z" fill="black"/>
  </symbol>

  <symbol id="vkontakte"  viewBox="0 0 29 18">
    <path d="M0.0914307 2.48988C0.0914307 1.63485 0.643326 1.17381 1.74712 1.10674L6.00052 1.13189C6.28599 1.13189 6.47629 1.25763 6.57145 1.50911C7.00916 2.76651 7.4992 3.85206 8.04158 4.76577C8.58397 5.67948 9.29287 6.7315 10.1683 7.92183C10.2444 8.07272 10.3681 8.14816 10.5394 8.14816C10.6726 8.14816 10.7773 8.08949 10.8534 7.97213L10.939 7.6955L10.9676 3.34491C10.9676 3.04313 10.8867 2.84195 10.7249 2.74136C10.5632 2.64077 10.2634 2.56532 9.82573 2.51503C9.48318 2.46473 9.3119 2.28031 9.3119 1.96177C9.3119 1.89471 9.32141 1.84442 9.34044 1.81089C9.74009 0.721143 10.8819 0.176271 12.766 0.176271L14.3646 0.151123C15.0878 0.151123 15.6872 0.310393 16.163 0.628934C16.6388 0.947474 16.8767 1.45043 16.8767 2.13781V7.84639C17.0099 7.93022 17.1336 7.97213 17.2478 7.97213C17.5332 7.97213 17.7806 7.82124 17.99 7.51947C20.0834 4.93761 21.2157 3.21079 21.387 2.33899C21.387 2.32223 21.406 2.28031 21.4441 2.21325C21.5773 1.96177 21.7962 1.74383 22.1007 1.55941C22.4051 1.37499 22.6716 1.24925 22.9 1.18219C22.9761 1.14866 23.0617 1.13189 23.1569 1.13189H27.5816L27.867 1.15704C28.2476 1.15704 28.5426 1.31631 28.752 1.63485C28.8281 1.73544 28.8804 1.84442 28.909 1.96177C28.9375 2.07913 28.9565 2.19649 28.966 2.31384C28.9756 2.4312 28.9803 2.49826 28.9803 2.51503V2.69106C28.8471 3.37844 28.5093 4.11192 27.9669 4.89151C27.4245 5.67109 26.7347 6.51355 25.8973 7.41887C25.06 8.3242 24.5366 8.91937 24.3273 9.20438C24.156 9.40556 24.0704 9.58998 24.0704 9.75763C24.0704 9.89175 24.1465 10.0426 24.2987 10.2103L28.4665 14.8375C28.6949 15.1058 28.809 15.3992 28.809 15.7177C28.809 16.1033 28.6378 16.4218 28.2952 16.6733C27.9527 16.9248 27.5435 17.0673 27.0677 17.1008L26.5824 17.126H22.2434C22.2244 17.126 22.1863 17.1302 22.1292 17.1385C22.0721 17.1469 22.034 17.1511 22.015 17.1511C21.5963 17.1511 21.2062 16.9919 20.8446 16.6733C20.7114 16.5392 19.8169 15.55 18.1613 13.7059C18.0661 13.5885 17.9329 13.4795 17.7616 13.3789C17.6855 13.6472 17.5856 14.0328 17.4619 14.5357C17.3382 15.0387 17.2478 15.3992 17.1907 15.6171L17.105 16.0446C16.9147 16.6314 16.5151 16.9835 15.9061 17.1008L15.5065 17.126H12.7089C11.1293 17.126 9.55454 16.4889 7.98449 15.2147C6.41444 13.9406 5.0014 12.2934 3.74536 10.2732C2.48932 8.25295 1.31892 5.90162 0.234162 3.21917C0.139008 3.00122 0.0914307 2.75813 0.0914307 2.48988ZM17.2478 9.00319C16.8481 9.00319 16.4865 8.90679 16.163 8.71399C15.8395 8.52119 15.6777 8.25714 15.6777 7.92183V2.13781C15.6777 1.8025 15.5826 1.5636 15.3923 1.42109C15.202 1.27859 14.8689 1.20734 14.3931 1.20734L12.766 1.25763C11.9477 1.25763 11.3292 1.38337 10.9105 1.63485C11.7479 1.98692 12.1665 2.55694 12.1665 3.34491V7.77095C12.1285 8.19008 11.9382 8.53796 11.5956 8.81458C11.253 9.09121 10.8724 9.22953 10.4538 9.22953C9.88282 9.22953 9.44511 8.98643 9.14062 8.50024C7.65621 6.52193 6.55242 4.64422 5.82924 2.8671L5.57233 2.21325L1.77566 2.18811C1.52826 2.18811 1.39029 2.20068 1.36174 2.22583C1.3332 2.25098 1.31892 2.32223 1.31892 2.43958C1.31892 2.59047 1.33795 2.74974 1.37602 2.9174L1.97549 4.32568C3.57408 7.96375 5.31065 10.8306 7.18519 12.9263C9.05974 15.0219 10.901 16.0698 12.7089 16.0698H15.5635C15.6777 16.0698 15.7634 16.0404 15.8205 15.9817C15.8776 15.9231 15.9251 15.8099 15.9632 15.6422L16.0203 15.3908L16.5627 13.1778C16.7149 12.876 16.8481 12.6748 16.9623 12.5742C17.1717 12.3898 17.4191 12.2976 17.7045 12.2976C18.1613 12.2976 18.6275 12.5407 19.1033 13.0269L21.5297 15.7428C21.682 15.9608 21.8437 16.0698 22.015 16.0698H26.7252C27.2961 16.0698 27.5816 15.944 27.5816 15.6925C27.5816 15.6087 27.553 15.5249 27.4959 15.4411L23.3567 10.8893C23.0332 10.5372 22.8714 10.16 22.8714 9.75763C22.8714 9.35527 23.0237 8.96966 23.3281 8.60083C23.5755 8.26552 24.0561 7.70808 24.7697 6.92849C25.4834 6.1489 26.1067 5.41961 26.6395 4.74062C27.1724 4.06163 27.5245 3.4455 27.6957 2.89225L27.7814 2.56532C27.7623 2.53179 27.7528 2.47731 27.7528 2.40186C27.7528 2.32642 27.7433 2.26355 27.7243 2.21325H23.2425C22.957 2.31384 22.7287 2.46473 22.5574 2.66592L22.3861 3.14373C21.9103 4.30053 20.6638 6.08603 18.6465 8.50024C18.2469 8.83554 17.7806 9.00319 17.2478 9.00319Z" fill="#666666"/>
  </symbol>

  <symbol id="facebook" viewBox="0 0 15 29">
    <path fill-rule="evenodd" clip-rule="evenodd" d="M5.95934 2.36453C7.14824 0.990575 8.77928 0.199951 10.5 0.199951H14C14.3038 0.199951 14.55 0.446195 14.55 0.749951V6.14297C14.55 6.44672 14.3038 6.69297 14 6.69297H10.5C10.3643 6.69297 10.2148 6.75463 10.091 6.89775C9.96497 7.04337 9.88337 7.25588 9.88337 7.49122V10.986H14C14.1663 10.986 14.3237 11.0612 14.4281 11.1906C14.5325 11.32 14.5728 11.4897 14.5376 11.6523L13.3709 17.0453C13.3162 17.2984 13.0923 17.479 12.8334 17.479H9.88337V27.715C9.88337 28.0188 9.63712 28.265 9.33337 28.265H4.6667C4.36294 28.265 4.1167 28.0188 4.1167 27.715V17.479H1.1667C0.862943 17.479 0.616699 17.2328 0.616699 16.929V11.536C0.616699 11.2322 0.862943 10.986 1.1667 10.986H4.1167V7.49122C4.1167 5.58109 4.77259 3.73599 5.95934 2.36453ZM10.5 1.29995C9.1266 1.29995 7.79017 1.92981 6.79115 3.08431C5.78997 4.24132 5.2167 5.82556 5.2167 7.49122V11.536C5.2167 11.8397 4.97046 12.086 4.6667 12.086H1.7167V16.379H4.6667C4.97046 16.379 5.2167 16.6252 5.2167 16.929V27.165H8.78337V16.929C8.78337 16.6252 9.02961 16.379 9.33337 16.379H12.3896L13.3183 12.086H9.33337C9.02961 12.086 8.78337 11.8397 8.78337 11.536V7.49122C8.78337 7.01141 8.94759 6.53804 9.25917 6.17797C9.57291 5.8154 10.017 5.59297 10.5 5.59297H13.45V1.29995H10.5Z" fill="#666666"/>
  </symbol>

  <symbol id="instagram" viewBox="0 0 23 23">
    <path d="M11.4775 0.0898438C13.3942 0.0898438 14.959 0.112305 16.1719 0.157227C17.2051 0.202148 18.126 0.381836 18.9346 0.696289C19.7132 0.995768 20.387 1.43001 20.9561 1.99902C21.5251 2.56803 21.9593 3.24186 22.2588 4.02051C22.5732 4.8291 22.7529 5.75 22.7979 6.7832C22.8428 7.99609 22.8652 9.56087 22.8652 11.4775C22.8652 13.3942 22.8428 14.959 22.7979 16.1719C22.7529 17.2051 22.5732 18.126 22.2588 18.9346C21.9593 19.7132 21.5251 20.387 20.9561 20.9561C20.387 21.5251 19.7132 21.9593 18.9346 22.2588C18.126 22.5732 17.2051 22.7529 16.1719 22.7978C14.959 22.8428 13.3942 22.8652 11.4775 22.8652C9.56087 22.8652 7.99609 22.8428 6.7832 22.7978C5.75 22.7529 4.8291 22.5732 4.02051 22.2588C3.24186 21.9593 2.56803 21.5251 1.99902 20.9561C1.43001 20.387 0.995768 19.7132 0.696289 18.9346C0.381836 18.126 0.202148 17.2051 0.157227 16.1719C0.112305 14.959 0.0898438 13.3942 0.0898438 11.4775C0.0898438 9.56087 0.112305 7.99609 0.157227 6.7832C0.202148 5.75 0.381836 4.8291 0.696289 4.02051C0.995768 3.24186 1.43001 2.56803 1.99902 1.99902C2.56803 1.43001 3.24186 0.995768 4.02051 0.696289C4.8291 0.381836 5.75 0.202148 6.7832 0.157227C7.99609 0.112305 9.56087 0.0898438 11.4775 0.0898438ZM11.4775 1.57227C9.486 1.57227 7.86133 1.59473 6.60352 1.63965C5.79492 1.6696 5.04622 1.81185 4.35742 2.06641C3.2793 2.51562 2.51562 3.2793 2.06641 4.35742C1.81185 5.04622 1.6696 5.79492 1.63965 6.60352C1.59473 7.86133 1.57227 9.486 1.57227 11.4775C1.57227 13.4691 1.59473 15.0937 1.63965 16.3516C1.6696 17.1602 1.81185 17.9089 2.06641 18.5977C2.51562 19.6758 3.2793 20.4395 4.35742 20.8887C5.04622 21.1432 5.79492 21.2855 6.60352 21.3154C7.86133 21.3603 9.486 21.3828 11.4775 21.3828C13.4691 21.3828 15.0938 21.3603 16.3516 21.3154C17.1602 21.2855 17.9089 21.1432 18.5977 20.8887C19.6758 20.4395 20.4395 19.6758 20.8887 18.5977C21.1432 17.9089 21.2855 17.1602 21.3154 16.3516C21.3604 15.0937 21.3828 13.4691 21.3828 11.4775C21.3828 9.486 21.3604 7.86133 21.3154 6.60352C21.2855 5.79492 21.1432 5.04622 20.8887 4.35742C20.4395 3.2793 19.6758 2.51562 18.5977 2.06641C17.9089 1.81185 17.1602 1.6696 16.3516 1.63965C15.0938 1.59473 13.4691 1.57227 11.4775 1.57227ZM11.4775 16.0371C12.7354 16.0371 13.8097 15.5916 14.7007 14.7007C15.5916 13.8097 16.0371 12.7354 16.0371 11.4775C16.0371 10.2197 15.5916 9.14534 14.7007 8.25439C13.8097 7.36344 12.7354 6.91797 11.4775 6.91797C10.2197 6.91797 9.14534 7.36344 8.25439 8.25439C7.36344 9.14534 6.91797 10.2197 6.91797 11.4775C6.91797 12.7354 7.36344 13.8097 8.25439 14.7007C9.14534 15.5916 10.2197 16.0371 11.4775 16.0371ZM11.4775 5.63769C13.0947 5.63769 14.4723 6.20671 15.6104 7.34473C16.7484 8.48275 17.3174 9.86035 17.3174 11.4775C17.3174 13.0947 16.7484 14.4723 15.6104 15.6104C14.4723 16.7484 13.0947 17.3174 11.4775 17.3174C9.86035 17.3174 8.48275 16.7484 7.34473 15.6104C6.20671 14.4723 5.6377 13.0947 5.6377 11.4775C5.6377 9.86035 6.20671 8.48275 7.34473 7.34473C8.48275 6.20671 9.86035 5.63769 11.4775 5.63769ZM18.9346 5.41309C18.9346 5.78743 18.7998 6.10563 18.5303 6.36768C18.2607 6.62972 17.9313 6.76074 17.542 6.76074C17.1676 6.76074 16.8494 6.62972 16.5874 6.36768C16.3254 6.10563 16.1943 5.78743 16.1943 5.41309C16.1943 5.02376 16.3254 4.69434 16.5874 4.4248C16.8494 4.15527 17.1676 4.02051 17.542 4.02051C17.9163 4.02051 18.242 4.15902 18.519 4.43603C18.7961 4.71305 18.9346 5.03874 18.9346 5.41309Z" fill="#666666"/>

  </symbol>

<symbol id="htmlacademy" viewbox="0 0 27 34">
  <path d="M13.64.02L13.5 0 0 1.4v24.61L13.5 34 27 26.01V1.41L13.64 0zm11.6 25L13.5 31.96 1.77 25.02v-10.1l11.68 6.93.02 1.25-8.02-4.75v1.23l8.04 4.8.02 1.3-8.05-4.76v1.22l8.04 4.81 8.12-4.83V16.9l3.62-2.15v10.26zm0-11.57L22 15.33l-1.48.88-7.06-4.19-.01 1.23 6.04 3.57-.06.03-.13.07-.86.5-4.98-2.95-.01 1.22 3.93 2.33-.93.61-.02.01-2.97-1.74-.01 1.23 1.94 1.13-1.98 1.19L1.8 13.58l11.63-6.96 11.8 6.83zm0-1.22L13.43 5.3 1.77 12.22V2.99L13.5 1.76 25.23 3v9.24z" fill="#666"/>
</symbol>


</svg>
