<svg width="58" height="62" fill="none" xmlns="http://www.w3.org/2000/svg"><path fill-rule="evenodd" clip-rule="evenodd" d="M54.01 12.92h-7.06A7.82 7.82 0 0036.75 1.6c-3.67 1.97-6.27 6.16-7.73 9.09-1.45-2.93-4.05-7.12-7.72-9.1a7.9 7.9 0 00-10.66 3.16 7.79 7.79 0 00.46 8.18H4.03a3.17 3.17 0 00-3.18 3.16v9.47a3.17 3.17 0 003.18 3.16h.84v26.35A6.11 6.11 0 0011 61.15h36.04a6.11 6.11 0 006.13-6.09V28.71h.85a3.17 3.17 0 003.18-3.16v-9.47a3.17 3.17 0 00-3.2-3.16zm-3.28 29.59v-13.8H30.24v13.8h20.5zm-20.49 2.42h20.5v10.13a3.68 3.68 0 01-3.7 3.67h-16.8v-13.8zm-2.44-2.42v-13.8H7.31v13.8h20.5zM7.31 44.93h20.5v13.8H11a3.68 3.68 0 01-3.69-3.67V44.93zM45.7 10a5.37 5.37 0 01-2.14 2.92h-12.9c1.15-2.55 3.67-7.28 7.24-9.2A5.43 5.43 0 0145.7 10zm-18.3 2.92c-1.15-2.55-3.67-7.28-7.25-9.2a5.46 5.46 0 00-7.36 2.17 5.39 5.39 0 001.72 7.03H27.4zM6.13 26.3h22.85a1.3 1.3 0 01.08 0h22.85a1.3 1.3 0 01.08 0H54c.41 0 .75-.33.75-.74v-9.47c0-.4-.34-.73-.75-.73H4.03c-.4 0-.74.33-.74.73v9.47c0 .41.33.74.74.74h2.1z" fill="#fff"/></svg>