<svg width="61" height="51" fill="none" xmlns="http://www.w3.org/2000/svg"><path d="M51.42 19.68a22.23 22.23 0 00-6.94-9.09 21.96 21.96 0 00-30.83 4 22.35 22.35 0 00-3.06 21.95 22.24 22.24 0 006.81 9.19 21.97 21.97 0 0010.44 4.54c-.5-1.82-1-3.83-1.45-5.95 1.3.85 2.67 1.59 4.1 2.21 0 0 .1 1.88.24 3.97 1.54.03 3.08-.1 4.59-.4a1.87 1.87 0 010-.67c.25-1.62.94-4.55 1.08-6.43 1-.94 1.83-2.03 2.5-3.23l-.06.38c-.47 3.7-1.46 7.66-2.06 8.75-.2.37-.44.7-.72 1a22 22 0 0014.61-11.52 22.43 22.43 0 00.75-18.7zm-1.27 3.3c-.38.37-1.16.62-1.29-.5-.13-1.14-.16-1.93-.16-1.93s-1.66-2.98-2.28-3.01c-.62-.04-5.03 3.01-6.19 4.34-1 1.12-1.2 1.04-1.2 3.02 0 1.48.18 7.1.08 11.39l-7.02 1.88c-2.2.64-4.45 1.14-6.72 1.5l-.86-5.07h-.12l-2.22-11.44s-3.28-1.25-4.48-1.6a3.21 3.21 0 00-3.45.55 4.4 4.4 0 00-1.49 3.35c.18.4.32.83.41 1.26.05.42-1.03.37-1.72.37s-.8-1.25-.25-2.72a19.9 19.9 0 011.57-3.25c.47-.92 1.07-1.76 1.78-2.5 0 0 .12-.3 1.08-.22.96.1 6.27.38 6.27.38l.04-1.97c5.78-.8 11.6-1.2 17.44-1.17v1.6c2.2-1.03 4.59-1.61 7.01-1.75a.78.78 0 01.66.34c.3.38 2.08 2.6 2.29 2.93.58.84 1.1 1.7 1.57 2.6a5.44 5.44 0 01-.75 1.6v.02z" fill="#FDC305"/><path d="M48.64 17.83l.86 1.12c.58.84 1.1 1.7 1.57 2.6a5.44 5.44 0 01-.74 1.55c-.38.38-1.16.63-1.29-.5-.13-1.13-.18-1.88-.18-1.88s-1.66-2.98-2.28-3.01c-.62-.04-5.02 3.01-6.19 4.34-1 1.12-1.2 1.05-1.2 3.02 0 1.3.14 5.78.1 9.76 1.57.17 3.86.6 4.55 1.63 0 0-.25-6.24 6.73-2.97 0 0 .24-8.5 9.87-6.33a37.71 37.71 0 00-11.8-9.33zm-9.07-2.02C39.6 11 39.2 6.2 38.36 1.45c0 0-.13-1.13-.75-.2-.51 1.1-.86 2.26-1.03 3.47a60.54 60.54 0 00-11.05.3c-.7-2.4-1.91-3.48-2.49-3.2-.57.3-.64 2.85-.64 2.85l-.29 12.3c5.79-.8 11.62-1.19 17.46-1.16z" fill="#F06351"/><path d="M39.07 39.94c.1-.93.17-2.16.2-3.52l-7.02 1.88c-2.2.65-4.45 1.17-6.72 1.54l.96 4.34c0 .1 0 .2.06.29 1.3.85 2.67 1.6 4.1 2.22 2.08-1 4.07-2.21 5.93-3.6v.06a13.2 13.2 0 002.49-3.2z" fill="#E55645"/><path d="M27.57 13.1c-.05-.1.86.58 1.21.8.35.2.53.36.53.5 0 .15-.23.3-.54.3-.3 0-.8-.1-.86-.22-.07-.13.52 0 .81 0h.25c-.53-.4-1-.86-1.4-1.39zm6.46.09s-.87 1.11-.94 1.16c-.08.06-.15.3.16.26.36-.06.7-.14 1.05-.25.1-.05.06-.17-.1-.15-.17.01-.59.04-.86.1l.73-1.11s.03-.1-.04-.01zm-2.71 5.31c.4-.18.73-.48.94-.87.24-.57 0-.8-.38-.87a2.1 2.1 0 00-1.5.3c-.34.32-.3.63 0 .87.28.23.6.42.94.57z" fill="#000"/><path d="M31.01 19.6a1.48 1.48 0 01-1.26.85c-.47.04-.94-.1-1.32-.39-.18-.1-.33-.23-.46-.39a.86.86 0 00-.3-.22c-.01 0 .64 3.58 2.2 4.15 1.57.57 1.86-.66 1.9-1a4.84 4.84 0 00-.7-2.8c0-.27-.02-.1-.06-.2z" fill="#F06351"/><path d="M29.55 20.58a3 3 0 01-2.03-1.24.13.13 0 010-.17.12.12 0 01.09-.04.12.12 0 01.08.04 2.78 2.78 0 001.82 1.14 1.8 1.8 0 001.42-.87l.12-.17.08.2s.33.65.86.69c.54.03.92-.37 1.4-1.12a.12.12 0 01.17-.03.13.13 0 01.04.17c-.57.85-1.11 1.26-1.62 1.22a1.33 1.33 0 01-.97-.63 1.95 1.95 0 01-1.46.81z" fill="#000"/><path d="M31.24 32.28a3.24 3.24 0 003.23-3.26c0-1.8-1.45-3.26-3.23-3.26A3.24 3.24 0 0028 29.02c0 1.8 1.44 3.26 3.23 3.26z" fill="#FDC305"/><path d="M35.52 26.37l-2.7 1.14 1-4.9-6.47 8.49 2.7-1.14-1 4.9 6.47-8.49zm-6.37 3.33l3.58-4.7-.7 3.47 1.73-.7-3.61 4.7.7-3.47-1.7.7zm-1.21-1.28c.54 0 .97-.43.97-.97a.97.97 0 00-.97-.97.97.97 0 00-.96.97c0 .54.43.97.96.97zm5.62 3.53c.38 0 .68-.3.68-.69 0-.38-.3-.68-.68-.68a.68.68 0 000 1.37zm.83-1.89a.3.3 0 00.3-.3.3.3 0 00-.3-.3.3.3 0 00-.3.3c0 .17.13.3.3.3z" fill="#111"/><path d="M39.52 17.39a49.73 49.73 0 00-4.38 4.52 27.56 27.56 0 01-4.58 4.26c-.19-.46-1.4-1.32-1.4-1.32s-2.7-1.87-4.48-3.34c-.96-.8-1.86-1.67-2.7-2.6l-1.73-.1A19.5 19.5 0 0030.6 26.5c.74-.12 2.82-1.62 4.38-2.85a49.89 49.89 0 005.17-5.13c.43-.52.76-1.1.98-1.74-.98.33-1.6.62-1.6.62zm-17.18 5.94s-3.29-1.25-4.5-1.59a3.21 3.21 0 00-3.44.55 4.4 4.4 0 00-1.49 3.34c.18.4.32.83.42 1.26.04.42-1.04.38-1.73.38s-.79-1.26-.25-2.72a19.9 19.9 0 011.57-3.25C8.22 23.76 0 29.46 0 29.46c2.35-.14 4.71-.07 7.06.21 4.52.46 4.3 4.06 4.3 4.06 1.6-.44 3.21-.76 4.85-.96 1.83-.13 1.96 1.84 1.96 1.84l.45 3.35a15.8 15.8 0 012.29-2.05 5.19 5.19 0 013.77-1.13l-2.34-11.45z" fill="#F06351"/></svg>